<svg width="605" height="386" viewBox="0 0 605 386" fill="none" xmlns="http://www.w3.org/2000/svg">
<path d="M562.146 382.891C562.146 382.891 661.669 253.744 555.36 184.639C449.05 115.535 480.717 137.058 454.705 82.6811C428.692 28.3023 356.31 -3.41797 266.964 38.4994C177.618 80.4145 107.499 72.4862 92.7953 73.6194C78.0921 74.7527 13.6271 78.1502 2.31798 137.06C-8.99113 195.97 24.9362 203.9 21.5444 227.69C18.1503 251.477 -0.0578855 268.472 2.26141 295.659C4.57844 322.848 7.97253 371.561 40.7707 382.891H562.146Z" fill="#EFECF7"/>
<path d="M578.082 385.001H7.12854C7.12854 385.001 7.13759 384.99 7.13985 384.988C40.6983 346.413 108.279 354.695 154.002 356.984C172.235 357.9 190.5 358.415 208.771 358.594C210.686 358.614 212.602 358.63 214.516 358.639C217.322 358.657 220.128 358.666 222.934 358.668C224.794 358.668 226.656 358.668 228.516 358.668C272.467 358.548 316.454 356.638 360.265 353.863C422.54 349.913 489.519 342.567 547.578 367.88C549.117 368.553 550.651 369.246 552.178 369.967C561.051 374.135 569.701 379.104 578.082 385.003V385.001Z" fill="#7979B2"/>
<path d="M396.675 77.8398H186.447C181.867 77.8398 178.154 81.5592 178.154 86.1467V231.019C178.154 235.607 181.867 239.326 186.447 239.326H264.878V262.153H318.244V239.326H396.675C401.255 239.326 404.968 235.607 404.968 231.019V86.1467C404.968 81.5592 401.255 77.8398 396.675 77.8398Z" fill="#FE6E8D"/>
<path d="M404.965 86.1444V231.019C404.965 235.607 401.657 239.326 397.578 239.326H391.602C395.684 239.326 398.992 235.607 398.992 231.019V86.1444C398.992 81.557 395.684 77.8398 391.602 77.8398H397.578C401.657 77.8398 404.965 81.557 404.965 86.1444Z" fill="#EF658A"/>
<path d="M380.236 90.1404H202.888C198.583 90.1404 195.093 93.6362 195.093 97.9486V219.7C195.093 224.013 198.583 227.509 202.888 227.509H380.236C384.541 227.509 388.031 224.013 388.031 219.7V97.9486C388.031 93.6362 384.541 90.1404 380.236 90.1404Z" fill="#EFECF7"/>
<path d="M379.915 99.798V218.848C379.915 220.505 377.98 221.86 375.618 221.86H205.728C203.366 221.86 201.431 220.505 201.431 218.848V99.798C201.431 98.1435 203.366 96.7881 205.728 96.7881H375.618C377.98 96.7881 379.915 98.1457 379.915 99.798Z" fill="#A8A1E2"/>
<path d="M316.834 262.082H321.016V239.256H316.834V262.082Z" fill="#EF658A"/>
<path d="M291.168 177.57C291.168 177.57 291.157 177.57 291.15 177.568C291.155 177.568 291.161 177.568 291.166 177.57H291.168Z" fill="#242C37"/>
<path d="M306.535 111.19C306.535 111.19 306.899 119.07 308.983 121.489C310.207 122.91 303.797 124.682 298.735 124.771C295.187 124.832 292.436 122.828 292.436 122.828C292.436 122.828 294.981 113.964 294.137 112.196C293.295 110.428 306.535 111.19 306.535 111.19Z" fill="#EFB284"/>
<path d="M318.905 91.9605C318.656 91.9673 318.418 92.0104 318.19 92.0806C318.314 89.7778 318.308 86.7996 317.808 85.1858C315.423 77.4682 308.209 73.9324 300.554 73.8712C292.97 73.81 285.695 76.9515 283.17 84.5194C282.611 86.1967 282.724 89.3449 282.794 91.7905C281.235 91.854 280.013 93.2026 280.063 94.8163C280.113 96.4414 281.427 97.722 283.002 97.6744C283.059 97.6744 283.113 97.6654 283.17 97.6608C286.623 107.84 291.829 113.558 300.328 113.626C308.987 113.697 312.929 106.623 317.493 97.4025C317.955 97.6994 318.5 97.8648 319.084 97.8467C320.659 97.7991 321.894 96.4437 321.846 94.8163C321.797 93.1912 320.482 91.9106 318.907 91.9582L318.905 91.9605Z" fill="#F8BD8C"/>
<path d="M292.759 91.4618C292.644 90.7886 292.334 90.3965 291.653 90.3965C291.148 90.3965 290.612 90.8158 290.576 91.9196C290.569 92.1417 290.594 92.3616 290.634 92.5792C290.673 92.7854 290.743 92.9826 290.836 93.173C291.017 93.547 291.331 93.8099 291.755 93.8348C292.119 93.8552 292.42 93.5991 292.58 93.2705C292.761 92.9033 292.816 92.4817 292.816 92.076C292.816 91.8697 292.793 91.6657 292.759 91.4618Z" fill="#3D3C3B"/>
<path d="M308.062 91.4141C308.096 91.1625 308.164 90.9041 308.284 90.6979C308.591 90.1653 309.442 90.0247 309.877 90.5959C310.155 90.9653 310.246 91.4119 310.27 91.8742C310.282 92.1145 310.264 92.357 310.225 92.595C310.191 92.8216 310.126 93.037 310.037 93.2455C309.865 93.6489 309.569 93.9481 309.128 93.9844C308.752 94.0138 308.447 93.726 308.284 93.386C308.094 92.9894 308.028 92.5293 308.019 92.085C308.014 91.8606 308.033 91.6362 308.064 91.4141H308.062Z" fill="#3D3C3B"/>
<path d="M311.732 88.1071C311.135 87.5292 310.2 87.2322 309.368 87.1166C308.91 87.0532 308.444 87.0396 307.98 87.0781C307.279 87.1393 306.349 87.307 306.295 88.0097C306.283 88.1547 306.331 88.3043 306.417 88.4154C306.627 88.6896 306.865 88.7372 307.256 88.6987C307.634 88.6624 307.777 88.5604 308.691 88.6375C309.275 88.6942 309.856 88.8075 310.408 89.0001C310.524 89.0477 310.635 89.1021 310.75 89.1497C311.114 89.3016 311.445 89.3515 311.743 89.0953C311.809 89.0409 311.854 88.9775 311.904 88.9072C312.04 88.7123 312.031 88.4018 311.73 88.1049L311.732 88.1071Z" fill="#3D3C3B"/>
<path d="M301.118 100.109H299.64C299.194 100.109 298.785 99.9069 298.513 99.5533C298.246 99.2065 298.153 98.7623 298.258 98.3362C298.696 96.5547 299.018 94.7936 299.215 93.1005C299.237 92.9078 299.412 92.7696 299.602 92.7922C299.792 92.8149 299.93 92.9894 299.907 93.1843C299.708 94.9092 299.38 96.6997 298.934 98.5107C298.882 98.7238 298.927 98.9481 299.063 99.1227C299.201 99.3017 299.412 99.406 299.642 99.406H301.12C301.312 99.406 301.468 99.5646 301.468 99.7596C301.468 99.9545 301.312 100.113 301.12 100.113L301.118 100.109Z" fill="#3D3C3B"/>
<path d="M233.487 215.636C233.487 215.636 231.36 220.496 229.324 219.886C227.287 219.276 224.262 219.455 223.314 219.56C222.044 219.7 217.915 218.73 218.159 220.276C218.401 221.822 224.9 222.187 226.26 222.524C227.461 222.821 223.791 225.557 222.683 227.107C221.252 228.605 214.218 236.021 214.19 237.005C214.161 238.1 214.724 238.546 215.578 237.733C216.272 237.071 221.61 231.833 223.563 229.915C223.606 229.972 223.651 230.026 223.696 230.083C221.8 232.928 215.885 241.842 215.693 242.581C215.557 243.098 216.598 244.025 217.1 243.63C217.512 243.306 223.719 235.185 225.893 232.332C225.914 232.35 225.934 232.366 225.957 232.384C224.058 235.255 218.872 243.168 218.906 243.825C218.942 244.528 220.108 245.158 220.748 244.333C221.268 243.664 226.55 236.683 228.523 234.075C228.572 234.097 228.622 234.12 228.672 234.14C227.346 236.502 224.273 242.103 224.631 242.638C224.907 243.052 225.767 243.891 227.004 241.563C228.24 239.238 231.763 234.072 231.772 234.059C231.824 234.02 231.874 233.977 231.923 233.934C234.971 231.173 236.232 226.21 236.874 225.831C237.515 225.453 240.314 221.497 240.314 221.497L233.492 215.638L233.487 215.636Z" fill="#EEA886"/>
<path d="M358.815 182.488C358.31 180.845 357.573 179.295 357.032 177.667C356.281 175.396 355.498 173.132 354.699 170.875C353.767 168.245 352.812 165.621 351.834 163.007C350.796 160.231 349.735 157.466 348.639 154.71C347.569 152.008 346.469 149.315 345.324 146.645C344.293 144.231 343.225 141.831 342.091 139.46C341.172 137.545 340.218 135.646 339.14 133.814C338.432 132.606 337.679 131.348 336.681 130.356C336.423 130.1 336.14 129.848 335.807 129.698C327.429 125.886 308.329 120.671 308.327 120.671C307.091 120.333 305.1 121.487 303.896 121.777C300.292 122.649 298.751 127.436 293.852 120.94C293.852 120.94 266.966 126.938 264.672 134.599C262.377 142.262 257.922 160.256 251.722 179.83C248.016 191.536 229.177 218.204 229.177 218.204C229.177 218.204 231.686 220.058 234.286 221.854C237.071 223.78 239.956 225.643 239.956 225.088C239.956 224.902 240.73 223.712 242.008 221.854C248.054 213.075 265.394 189.36 265.649 185.945C265.955 181.808 273.646 160.65 273.646 160.65C273.646 160.65 277.289 201.33 277.289 207.613C277.289 211.418 277.137 217.581 277.02 221.854H333.495C333.778 220.945 333.658 219.927 333.022 218.789C331.42 215.922 330.836 206.588 330.755 196.307C331.207 196.167 331.655 196.029 332.108 195.886C334.979 194.986 337.846 194.068 340.706 193.13C343.449 192.23 346.189 191.307 348.904 190.34C351.097 189.558 353.283 188.753 355.425 187.844C356.109 187.554 356.801 187.282 357.469 186.947C357.917 186.722 358.412 186.523 358.785 186.18C359.824 185.24 359.152 183.56 358.822 182.481L358.815 182.488ZM342.582 178.39C342.134 179.508 336.837 181.84 330.852 184.166C331.115 172.482 331.775 162.393 332.051 162.257C332.662 161.949 343.652 175.736 342.582 178.39Z" fill="#383860"/>
<path d="M281.846 78.0167C281.846 78.0167 282.688 84.329 290.528 81.9831C298.368 79.6395 300.799 78.377 304.806 81.081C308.811 83.785 318.67 81.0289 318.242 88.6286C317.814 96.2283 318.905 91.9581 318.905 91.9581C318.905 91.9581 322.643 90.562 320.484 82.3843C318.323 74.2066 306.473 64.4877 296.751 67.1939C287.028 69.9002 282.249 72.2438 281.848 78.0144L281.846 78.0167Z" fill="#3D3C3B"/>
<path d="M280.932 91.5433C280.932 91.5433 279.328 80.1676 282.502 77.2664C285.677 74.3652 286.908 78.1027 285.647 79.9454C284.387 81.7881 282.796 91.1376 282.975 91.813C282.975 91.813 282.534 91.6113 281.136 92.5565L280.932 91.5411V91.5433Z" fill="#3D3C3B"/>
<path d="M300.504 107.915C299.047 107.915 297.058 107.178 296.183 105.897C296.07 105.732 296.024 105.578 296.042 105.428C296.106 104.923 296.739 104.921 297.045 104.918H297.119C299.086 104.88 301.086 104.687 303.018 104.504L303.892 104.42C304.498 104.349 305.111 104.311 305.344 104.694C305.43 104.832 305.487 105.066 305.272 105.387C304.333 106.797 302.509 107.81 300.735 107.912C300.661 107.917 300.584 107.919 300.504 107.919V107.915ZM296.834 105.616C297.642 106.664 299.452 107.287 300.695 107.214C302.231 107.126 303.808 106.267 304.645 105.068C304.523 105.059 304.319 105.063 303.969 105.104C303.926 105.109 303.892 105.113 303.865 105.115L303.082 105.19C301.136 105.376 299.122 105.571 297.131 105.607H297.045C296.999 105.607 296.916 105.607 296.834 105.614V105.616Z" fill="#3D3C3B"/>
<path d="M318.78 122.291L300.009 161.01C300.009 161.01 294.54 159.843 293.866 159.322C293.189 158.801 285.471 122.815 285.471 122.815L290.992 121.292L295.574 120.027L298.332 123.769C298.355 123.801 298.375 123.835 298.387 123.871C298.389 123.873 298.389 123.871 298.389 123.871C298.497 123.835 298.613 123.837 298.715 123.882C298.733 123.715 298.81 123.554 298.941 123.434L303.46 119.274L311.85 120.929L318.78 122.293V122.291Z" fill="#EFECF7"/>
<path d="M298.292 124.37L295.769 127.001L291.793 131.146C291.501 131.452 290.99 131.244 290.99 130.822V120.054C290.99 119.911 291.053 119.78 291.164 119.691L293.386 117.883C293.594 117.715 293.897 117.753 294.056 117.969L295.574 120.027L298.332 123.769C298.355 123.801 298.375 123.835 298.387 123.871C298.389 123.873 298.389 123.871 298.389 123.871C298.454 124.039 298.42 124.234 298.292 124.367V124.37Z" fill="#2E2E51"/>
<path d="M311.861 121.7L305.575 131.666C305.31 132.08 304.713 132.108 304.414 131.715L300.986 127.191L298.855 124.379C298.742 124.231 298.697 124.052 298.712 123.882C298.73 123.715 298.807 123.554 298.939 123.433L303.457 119.274L306.277 116.679C306.544 116.432 306.96 116.432 307.229 116.679L311.739 120.802C311.782 120.841 311.816 120.884 311.847 120.929C312.004 121.158 312.013 121.459 311.861 121.702V121.7Z" fill="#2E2E51"/>
<path d="M301.258 126.935L300.986 127.194L298.459 129.596C298.264 129.782 297.952 129.762 297.785 129.549L295.769 127.001L295.56 126.741C295.406 126.543 295.434 126.258 295.628 126.099L298.248 123.95C298.291 123.916 298.337 123.889 298.384 123.871C298.387 123.873 298.387 123.871 298.387 123.871C298.495 123.835 298.611 123.837 298.712 123.882C298.764 123.903 298.814 123.935 298.857 123.975L301.256 126.269C301.443 126.45 301.443 126.756 301.256 126.938L301.258 126.935Z" fill="#FE6E8D"/>
<path d="M298.194 127.318L302.387 154.598L295.28 169.313L291.598 154.209L298.194 127.318Z" fill="#FE6E8D"/>
<path d="M285.937 122.391L294.983 167.821C295.047 168.143 294.624 168.318 294.443 168.044L280.717 147.28C280.642 147.167 280.654 147.019 280.742 146.917L284.894 142.198C285.005 142.071 284.989 141.879 284.862 141.772L277.411 135.539C277.296 135.444 277.271 135.279 277.35 135.152L285.394 122.294C285.537 122.065 285.887 122.128 285.939 122.393L285.937 122.391Z" fill="#2E2E51"/>
<path d="M317.102 120.705L296.02 167.672C295.873 168.001 296.291 168.288 296.542 168.03L319.231 144.936C319.339 144.827 319.353 144.655 319.267 144.528L316.14 139.909C316.036 139.755 316.083 139.546 316.242 139.451L326.055 133.554C326.214 133.458 326.261 133.248 326.155 133.094L317.66 120.657C317.518 120.449 317.203 120.478 317.102 120.707V120.705Z" fill="#2E2E51"/>
<path d="M352.848 199.51L326.992 217.554C324.688 219.161 321.521 218.594 319.916 216.287L291.809 175.874C290.204 173.567 290.77 170.394 293.074 168.787L318.93 150.743C321.233 149.136 324.401 149.703 326.005 152.01L354.113 192.422C355.717 194.73 355.152 197.903 352.848 199.51Z" fill="#56548C"/>
<path d="M305.614 190.136C305.614 190.136 303 190.063 302.199 189.948C301.4 189.832 301.928 191.536 302.858 191.858C303.785 192.18 305.614 190.136 305.614 190.136Z" fill="#C98462"/>
<path d="M304.086 202.64C304.086 202.64 305.229 202.917 305.786 202.794C305.786 202.794 306.783 202.493 307.505 202.323C307.736 202.268 307.935 202.227 308.069 202.214C308.625 202.159 309.856 202.203 311.153 201.695C312.445 201.189 316.832 198.934 316.832 198.934L315.579 194.848L314.633 191.611C314.633 191.611 307.218 189.635 305.96 189.968C305.838 190.002 305.715 190.038 305.605 190.081C304.566 190.466 303.955 191.192 303.432 191.455C303.242 191.552 301.405 192.658 301.31 193.293C301.174 194.172 301.439 194.836 301.891 195.244C301.891 195.244 301.706 196.978 302.349 197.96C302.349 197.96 302.125 199.555 303.272 200.548C303.272 200.548 303.226 202.191 304.089 202.635L304.086 202.64Z" fill="#EEA886"/>
<path d="M313.074 190.566C313.074 190.566 312.703 195.781 316.66 200.584C316.66 200.584 347.854 190.833 351.57 189.372C355.285 187.907 338.068 142.085 338.068 142.085L325.401 146.405L332.205 159.295C332.205 159.295 335.574 166.516 342.58 178.392C342.58 178.392 338.269 182.495 313.072 190.566H313.074Z" fill="#383860"/>
<path d="M293.92 86.2555C293.153 85.9359 292.173 85.9994 291.359 86.1966C290.91 86.3054 290.469 86.4617 290.053 86.668C289.422 86.9808 288.618 87.4772 288.822 88.1503C288.865 88.2908 288.962 88.411 289.084 88.4835C289.381 88.6626 289.618 88.6195 289.969 88.4404C290.309 88.2682 290.404 88.1231 291.282 87.8602C291.845 87.6993 292.429 87.5927 293.013 87.5723C293.137 87.5723 293.261 87.5837 293.386 87.5859C293.782 87.5927 294.105 87.5202 294.293 87.1734C294.334 87.0986 294.354 87.0238 294.375 86.94C294.431 86.7088 294.309 86.4232 293.922 86.2555H293.92Z" fill="#3D3C3B"/>
<path d="M330.495 261.08H256.008C254.383 261.08 253.066 262.4 253.066 264.027V269.294C253.066 270.922 254.383 272.241 256.008 272.241H330.495C332.119 272.241 333.436 270.922 333.436 269.294V264.027C333.436 262.4 332.119 261.08 330.495 261.08Z" fill="#EF658A"/>
<path d="M327.343 261.08H254.589C252.965 261.08 251.648 262.4 251.648 264.027V269.294C251.648 270.922 252.965 272.241 254.589 272.241H327.343C328.967 272.241 330.284 270.922 330.284 269.294V264.027C330.284 262.4 328.967 261.08 327.343 261.08Z" fill="#FE6E8D"/>
<path d="M301.652 283.374C301.652 284.09 301.07 284.673 300.355 284.673C299.64 284.673 299.059 284.09 299.059 283.374C299.059 282.658 299.638 282.075 300.355 282.075C301.072 282.075 301.652 282.656 301.652 283.374Z" fill="white"/>
<path d="M360.308 349.301H228.185C219.458 340.804 218.515 329.929 228.185 323.531H360.308V326.615H356.122V345.851H360.308V349.301Z" fill="#4D4D84"/>
<path d="M356.122 345.851H230.659C224.615 341.59 224.438 330.518 230.659 326.615H356.122V345.851Z" fill="white"/>
<path d="M230.749 345.851H230.659C227.613 343.705 226.058 339.827 226.061 336.01C226.061 332.252 227.574 328.551 230.659 326.615H356.122V330.201H233.844C228.971 333.258 228.027 340.715 230.751 345.851H230.749Z" fill="#D6D2CB"/>
<path d="M350.934 371.4H355.12V374.849H222.997C216.949 368.959 214.639 361.93 217.012 356.039C218.06 353.431 220.028 351.042 222.997 349.079H355.122V352.164H350.936V371.402L350.934 371.4Z" fill="#383860"/>
<path d="M370.92 374.847H238.798C230.07 366.35 229.127 355.475 238.798 349.077H370.92V352.161H366.734V371.4H370.92V374.849V374.847Z" fill="#56548C"/>
<path d="M366.734 371.4H241.273C235.229 367.137 235.053 356.067 241.273 352.164H366.734V371.4Z" fill="white"/>
<path d="M241.361 371.4H241.273C238.227 369.251 236.673 365.375 236.673 361.559C236.673 357.801 238.187 354.099 241.273 352.164H366.734V355.749H244.457C239.583 358.807 238.639 366.264 241.364 371.402L241.361 371.4Z" fill="#D6D2CB"/>
<path d="M355.12 297.955H222.999C214.272 289.458 213.328 278.583 222.999 272.184H355.122V275.269H350.936V294.505H355.122V297.955H355.12Z" fill="#4D4D84"/>
<path d="M370.92 297.955H238.798C230.07 289.458 229.127 278.583 238.798 272.184H370.92V275.269H366.734V294.505H370.92V297.955Z" fill="#5C5C8E"/>
<path d="M366.734 294.505H241.273C235.229 290.244 235.053 279.172 241.273 275.269H366.734V294.505Z" fill="white"/>
<path d="M241.361 294.505H241.273C238.227 292.359 236.673 288.481 236.673 284.664C236.673 280.906 238.187 277.205 241.273 275.269H366.734V278.855H244.457C239.583 281.915 238.639 289.371 241.364 294.507L241.361 294.505Z" fill="#D6D2CB"/>
<path d="M366.798 323.68H230.213C226.683 323.68 223.818 320.813 223.818 317.277V303.991C223.818 300.453 226.681 297.585 230.213 297.585H366.653C367.739 297.585 368.619 298.467 368.619 299.555V321.853C368.619 322.862 367.802 323.68 366.796 323.68H366.798Z" fill="#383860"/>
<path d="M258.646 297.585H246.224V323.68H258.646V297.585Z" fill="#56548C"/>
<path d="M262.183 366.055H349.149C349.565 366.055 349.902 366.393 349.902 366.81V367.211C349.902 367.628 349.565 367.966 349.149 367.966H262.183C261.767 367.966 261.429 367.628 261.429 367.211V366.81C261.429 366.393 261.767 366.055 262.183 366.055Z" fill="#E3DCD5"/>
<path d="M336.758 360.751H249.79C249.374 360.751 249.036 361.089 249.036 361.506V362.055C249.036 362.472 249.374 362.809 249.79 362.809H336.758C337.174 362.809 337.511 362.472 337.511 362.055V361.506C337.511 361.089 337.174 360.751 336.758 360.751Z" fill="#E3DCD5"/>
<path d="M258.221 286.781H345.186C345.603 286.781 345.94 287.118 345.94 287.536V288.084C345.94 288.501 345.603 288.839 345.186 288.839H258.221C257.804 288.839 257.467 288.501 257.467 288.084V287.536C257.467 287.118 257.804 286.781 258.221 286.781Z" fill="#E3DCD5"/>
<path d="M260.158 334.301H347.123C347.54 334.301 347.877 334.639 347.877 335.056V335.604C347.877 336.021 347.54 336.359 347.123 336.359H260.158C259.741 336.359 259.404 336.021 259.404 335.604V335.056C259.404 334.639 259.741 334.301 260.158 334.301Z" fill="#E3DCD5"/>
<path d="M172.862 0.00226654L232.937 4.6872C237.01 4.6872 240.311 7.99635 240.311 12.0739L235.634 41.5615C235.634 45.6413 232.333 48.9482 228.26 48.9482L225.425 49.1227C225.425 49.1227 223.741 55.4826 227.043 58.7872C227.043 58.7872 217.209 56.4074 215.623 49.7256L177.539 52.0715C173.466 52.0715 170.165 48.7646 170.165 44.6848L165.485 7.38665C165.485 3.30688 168.787 0 172.86 0L172.862 0.00226654Z" fill="#A8A1E2"/>
<path d="M180.114 19.6464C180.114 20.4828 180.793 21.1628 181.628 21.1628H224.169C225.004 21.1628 225.683 20.4851 225.683 19.6464C225.683 18.8078 225.006 18.1301 224.169 18.1301H181.628C180.793 18.1301 180.114 18.8078 180.114 19.6464Z" fill="#EFECF7"/>
<path d="M180.114 26.038C180.114 26.8744 180.793 27.5544 181.628 27.5544H224.169C225.004 27.5544 225.683 26.8744 225.683 26.038C225.683 25.2017 225.006 24.5217 224.169 24.5217H181.628C180.793 24.5217 180.114 25.2017 180.114 26.038Z" fill="#EFECF7"/>
<path d="M180.114 32.4296C180.114 33.2683 180.793 33.946 181.628 33.946H224.169C225.004 33.946 225.683 33.2683 225.683 32.4296C225.683 31.591 225.006 30.9133 224.169 30.9133H181.628C180.793 30.9133 180.114 31.591 180.114 32.4296Z" fill="#EFECF7"/>
<path d="M142.297 284.013L154.31 306.779L138.077 305.478L142.297 284.013Z" fill="#6F5DC6"/>
<path d="M117.565 245.111C117.436 245.12 117.305 245.11 117.176 245.117C116.823 245.133 116.473 245.172 116.124 245.226C115.608 245.305 115.097 245.421 114.597 245.571C113.972 245.756 113.361 245.997 112.777 246.287C112.096 246.625 111.449 247.035 110.852 247.506C110.164 248.05 109.546 248.676 109.003 249.365C108.37 250.172 107.845 251.06 107.419 251.994C106.906 253.123 106.539 254.317 106.286 255.53C105.969 257.033 105.822 258.569 105.786 260.106C105.772 260.666 105.797 261.223 105.804 261.783C105.808 262.107 105.822 262.416 105.727 262.726C105.575 263.216 105.326 263.676 105.01 264.077C104.562 264.648 103.973 265.097 103.315 265.403C101.127 266.423 94.0014 268.411 93.3904 277.789C92.7795 287.168 92.3722 289.412 88.9125 291.248C85.4528 293.084 86.4688 297.978 89.9307 300.219C93.3905 302.463 147.132 298.995 147.132 298.995C147.132 298.995 152.629 289.718 145.096 282.581C137.563 275.444 141.84 273.61 140.516 267.898C139.193 262.189 134.205 261.781 134.104 259.027C134.002 256.275 133.696 244.041 117.563 245.111H117.565Z" fill="#3D3C3B"/>
<path d="M131.9 270.024C130.225 275.899 125.494 275.002 119.833 273.263C114.174 271.527 110.938 265.355 112.612 259.478C114.284 253.603 120.229 250.244 125.89 251.983C131.549 253.719 133.572 264.147 131.9 270.024Z" fill="#EEA886"/>
<path d="M121.184 249.408C121.184 249.408 125.415 256.627 117.946 260.466C110.474 264.306 112.563 270.505 112.563 270.505C112.563 270.505 108.458 268.773 109.322 261.849C110.187 254.924 108.026 252.977 113.21 251.031C118.394 249.084 121.184 249.408 121.184 249.408Z" fill="#3D3C3B"/>
<path d="M126.139 272.236C126.139 272.236 124.727 276.942 126.621 278.24C128.515 279.539 118.104 279.267 118.104 279.267C118.104 279.267 117.264 273.66 119.005 271.101C120.749 268.535 126.139 272.234 126.139 272.234V272.236Z" fill="#EEA886"/>
<path d="M114.934 267.583C114.934 268.472 114.217 269.19 113.33 269.19C112.443 269.19 111.725 268.472 111.725 267.583C111.725 266.695 112.443 265.976 113.33 265.976C114.217 265.976 114.934 266.695 114.934 267.583Z" fill="#EEA886"/>
<path d="M121.093 263.594C121.093 264.095 120.688 264.5 120.188 264.5C119.688 264.5 119.283 264.095 119.283 263.594C119.283 263.093 119.688 262.687 120.188 262.687C120.688 262.687 121.093 263.093 121.093 263.594Z" fill="#3D3C3B"/>
<path d="M128.687 259.895C129.165 259.895 129.553 259.506 129.553 259.027C129.553 258.547 129.165 258.159 128.687 258.159C128.208 258.159 127.82 258.547 127.82 259.027C127.82 259.506 128.208 259.895 128.687 259.895Z" fill="#3D3C3B"/>
<path d="M120.722 261.153C120.724 261.189 119.548 261.529 119.434 261.57C118.76 261.815 118.054 262.08 117.556 262.631C117.341 262.866 117.206 263.161 117.083 263.458C116.968 263.737 116.875 264.122 116.669 264.34C116.64 264.247 116.654 264.138 116.66 264.041C116.701 263.508 116.735 262.95 116.9 262.443C117.131 261.738 117.846 261.133 118.461 260.786C119.072 260.444 120.64 259.99 120.72 261.153H120.722Z" fill="#3D3C3B"/>
<path d="M125.992 258.648C126.024 258.669 126.897 257.812 126.99 257.733C127.535 257.266 128.114 256.783 128.838 256.622C129.151 256.552 129.472 256.579 129.791 256.622C130.09 256.661 130.47 256.77 130.762 256.699C130.696 256.629 130.594 256.586 130.506 256.543C130.024 256.314 129.522 256.067 129.001 255.963C128.275 255.815 127.397 256.139 126.793 256.504C126.193 256.867 125.026 258.007 125.994 258.651L125.992 258.648Z" fill="#3D3C3B"/>
<path d="M107.132 254.67C106.643 256.212 106.186 257.758 105.829 259.33C105.65 260.117 105.494 260.908 105.356 261.704L105.256 262.3L105.209 262.599C105.188 262.703 105.157 262.819 105.129 262.925C104.982 263.36 104.677 263.707 104.347 263.972C104.014 264.242 103.645 264.444 103.274 264.623C102.901 264.8 102.523 264.956 102.14 265.099C101.76 265.242 101.376 265.375 100.993 265.509L100.421 265.709C100.233 265.779 100.052 265.847 99.8709 265.931C99.1514 266.262 98.4816 266.71 97.8548 267.209C97.228 267.708 96.6375 268.263 96.1035 268.859H96.1012C96.0695 268.898 96.0152 268.9 95.979 268.868C95.9451 268.836 95.9406 268.784 95.97 268.748C96.4995 268.122 97.0742 267.547 97.6987 267.019C98.3209 266.49 99.002 266.024 99.7465 265.663C99.932 265.575 100.129 265.498 100.317 265.423L100.887 265.212C101.267 265.072 101.645 264.933 102.018 264.784C102.392 264.636 102.76 264.478 103.113 264.301C103.469 264.124 103.81 263.925 104.102 263.68C104.394 263.435 104.636 263.141 104.745 262.801C104.763 262.712 104.786 262.631 104.804 262.538L104.851 262.236L104.951 261.636C105.089 260.833 105.243 260.035 105.421 259.24C105.6 258.447 105.802 257.655 106.023 256.874C106.247 256.092 106.498 255.319 106.756 254.548C106.79 254.444 106.903 254.389 107.008 254.423C107.109 254.457 107.166 254.568 107.132 254.673V254.67Z" fill="#3D3C3B"/>
<path d="M117.57 276.314C119.817 276.855 124.295 277.873 126.913 278.066C127.628 278.118 128.178 278.716 128.178 279.435V280.332C128.178 280.332 140.982 281.52 142.297 284.011C143.612 286.502 145.232 327.338 145.232 327.338H101.337L104.41 284.011C104.41 284.011 109.526 282.057 115.95 281.429L116.133 277.399C116.167 276.665 116.857 276.144 117.57 276.314Z" fill="#755CCD"/>
<path d="M120.896 318.494C119.482 320.861 118.065 323.227 116.651 325.598C116.296 326.196 106.532 323.637 101.686 322.375C100.421 322.044 99.493 321.801 99.1468 321.726C96.2324 321.083 93.3113 320.434 90.3969 319.791C88.159 319.297 85.5094 319.043 83.6268 317.628C82.5158 316.788 81.6989 315.45 81.7895 314.054C81.8641 312.866 82.5543 311.822 83.2263 310.838C89.7384 301.192 97.5946 293.451 104.408 284.013L102.921 304.997C101.769 306.348 98.5382 310.298 98.2915 310.298C99.6695 310.808 101.054 311.314 102.437 311.813C108.578 314.065 114.735 316.287 120.896 318.494Z" fill="#6F5DC6"/>
<path d="M126.39 325.16H116.988L116.984 325.042C118.14 323.107 119.296 321.171 120.448 319.242L120.518 319.251C123.028 319.795 125.424 320.84 125.824 322.631L126.392 325.16H126.39Z" fill="#EEA886"/>
<path fill-rule="evenodd" clip-rule="evenodd" d="M167.205 327.338H126.277C125.107 327.338 124.401 326.382 124.704 325.21L131.599 298.655C131.902 297.483 133.108 296.527 134.278 296.527H175.206C176.376 296.527 177.082 297.486 176.779 298.655L169.884 325.21C169.581 326.382 168.375 327.338 167.205 327.338Z" fill="url(#paint0_linear_111_20)"/>
<path fill-rule="evenodd" clip-rule="evenodd" d="M129.82 327.338H111.151C110.187 327.338 109.401 326.549 109.401 325.586C109.401 324.62 110.189 323.834 111.151 323.834H129.82C130.784 323.834 131.572 324.62 131.572 325.586C131.572 326.552 130.784 327.338 129.82 327.338Z" fill="url(#paint1_linear_111_20)"/>
<path fill-rule="evenodd" clip-rule="evenodd" d="M168.298 327.338H128.578C127.408 327.338 126.7 326.379 127.006 325.21L133.9 298.655C134.203 297.483 135.409 296.527 136.579 296.527H176.299C177.469 296.527 178.177 297.483 177.872 298.655L170.977 325.21C170.674 326.382 169.468 327.338 168.298 327.338Z" fill="#3D3D6B"/>
<path d="M125.969 265.783C125.926 265.783 125.885 265.765 125.856 265.731C125.804 265.668 125.811 265.575 125.874 265.523C125.953 265.455 126.039 265.4 126.121 265.344C126.22 265.278 126.313 265.215 126.392 265.138C126.589 264.945 126.585 264.77 126.377 264.555C126.257 264.433 126.164 264.34 126.08 264.258C125.745 263.929 125.578 263.766 124.774 262.619C124.727 262.551 124.743 262.458 124.811 262.413C124.879 262.366 124.969 262.381 125.017 262.449C125.804 263.574 125.965 263.732 126.288 264.045C126.374 264.129 126.469 264.222 126.591 264.347C126.913 264.677 126.915 265.042 126.603 265.348C126.505 265.443 126.395 265.518 126.288 265.589C126.209 265.641 126.137 265.691 126.069 265.747C126.042 265.77 126.008 265.781 125.974 265.781L125.969 265.783Z" fill="#3D3C3B"/>
<path d="M126.207 270.244C125.236 270.244 124.494 269.954 124.478 269.947C124.392 269.913 124.349 269.816 124.385 269.727C124.419 269.641 124.517 269.6 124.605 269.634C124.63 269.646 127.175 270.634 128.872 268.782C128.936 268.714 129.042 268.709 129.11 268.773C129.178 268.836 129.182 268.943 129.119 269.011C128.221 269.99 127.114 270.244 126.204 270.244H126.207Z" fill="#3D3C3B"/>
<path d="M140.602 272.071C140.672 272.957 140.86 273.834 141.175 274.666C141.489 275.498 141.928 276.282 142.469 276.994C143.555 278.419 145.024 279.537 146.623 280.373C146.736 280.432 146.779 280.573 146.721 280.686C146.662 280.797 146.526 280.842 146.413 280.786C144.75 279.956 143.195 278.83 142.016 277.345C141.43 276.604 140.944 275.777 140.591 274.895C140.238 274.013 140.016 273.077 139.923 272.132C139.905 271.946 140.041 271.779 140.229 271.76C140.414 271.742 140.582 271.878 140.6 272.066V272.073L140.602 272.071Z" fill="#3D3C3B"/>
<path d="M120.188 251.878C120.188 251.878 131.698 254.546 132.744 263.796C132.744 263.796 133.884 248.519 120.188 251.878Z" fill="#3D3C3B"/>
<path d="M185.001 358.913H55.5532C47.0023 347.59 46.0791 333.097 55.5532 324.568H185.001V328.68H180.901V354.317H185.001V358.913Z" fill="#4D4D84"/>
<path d="M200.481 358.913H71.0325C62.4816 347.59 61.5562 333.097 71.0325 324.568H200.481V328.68H196.378V354.317H200.481V358.913Z" fill="#5C5C8E"/>
<path d="M196.381 354.317H73.4559C67.5343 348.637 67.3601 333.882 73.4559 328.68H196.381V354.317Z" fill="white"/>
<path d="M73.5441 354.317H73.4558C70.4713 351.454 68.9485 346.289 68.9485 341.2C68.9485 336.194 70.4306 331.259 73.4558 328.68H196.381V333.458H76.5761C71.8018 337.535 70.8763 347.472 73.5441 354.317Z" fill="#D6D2CB"/>
<path d="M180.342 340.033H94.8793C94.2857 340.033 93.8045 340.515 93.8045 341.11V341.563C93.8045 342.157 94.2857 342.639 94.8793 342.639H180.342C180.936 342.639 181.417 342.157 181.417 341.563V341.11C181.417 340.515 180.936 340.033 180.342 340.033Z" fill="#E3DCD5"/>
<path d="M167.474 348.294H82.0112C81.4176 348.294 80.9364 348.776 80.9364 349.371V349.824C80.9364 350.419 81.4176 350.901 82.0112 350.901H167.474C168.068 350.901 168.549 350.419 168.549 349.824V349.371C168.549 348.776 168.068 348.294 167.474 348.294Z" fill="#E3DCD5"/>
<path d="M150.103 199.99L122.652 202.132C120.792 202.132 119.283 203.644 119.283 205.507L121.421 218.982C121.421 220.847 122.93 222.356 124.79 222.356L126.087 222.436C126.087 222.436 126.856 225.341 125.347 226.853C125.347 226.853 129.841 225.765 130.565 222.712L147.967 223.784C149.827 223.784 151.337 222.273 151.337 220.409L153.475 203.367C153.475 201.504 151.966 199.993 150.106 199.993L150.103 199.99Z" fill="#A8A1E2"/>
<path d="M131.642 212.608C131.642 213.619 130.823 214.44 129.814 214.44C128.804 214.44 127.985 213.619 127.985 212.608C127.985 211.597 128.802 210.777 129.814 210.777C130.825 210.777 131.642 211.597 131.642 212.608Z" fill="white"/>
<path d="M137.421 212.357C137.421 213.367 136.602 214.188 135.593 214.188C134.583 214.188 133.764 213.367 133.764 212.357C133.764 211.346 134.581 210.525 135.593 210.525C136.604 210.525 137.421 211.346 137.421 212.357Z" fill="white"/>
<path d="M143.2 212.103C143.2 213.114 142.383 213.934 141.372 213.934C140.36 213.934 139.543 213.114 139.543 212.103C139.543 211.092 140.362 210.271 141.372 210.271C142.381 210.271 143.2 211.092 143.2 212.103Z" fill="white"/>
<path d="M487.431 261.665C482.733 254.313 478.024 238.363 478.024 238.363L470.392 237.606V237.225L469.693 237.415L468.996 237.225V237.606L456.694 240.804C456.694 240.804 456.284 254.682 451.587 262.035C446.944 269.299 450.277 278.376 469.693 277.039C489.112 278.376 492.071 268.932 487.431 261.667V261.665Z" fill="#3D3C3B"/>
<path d="M478.586 241.906C478.586 248.229 473.673 253.354 467.614 253.354C461.554 253.354 456.642 248.229 456.642 241.906C456.642 235.582 461.554 231.282 467.614 231.282C473.673 231.282 478.586 235.584 478.586 241.906Z" fill="#3D3C3B"/>
<path d="M467.247 234.999C457.768 234.836 458.583 243.236 458.583 243.236C458.583 243.236 458.217 247.678 459.533 251.441C460.199 253.34 461.047 254.358 463.71 256.203C463.672 256.826 463.33 260.688 463.142 263.701C463.036 265.38 463.183 266.667 463.183 266.667C463.183 266.667 466.489 266.817 471.911 266.529L471.793 265.192L470.958 263.451L470.935 260.657L470.741 256.357L471.166 255.978C473.098 254.544 474.44 253.003 475.124 251.466C475.979 249.546 476.162 246.556 476.162 243.231C476.162 243.231 476.728 235.158 467.247 234.995V234.999Z" fill="#F8BD8C"/>
<path d="M459.676 235.045C459.676 235.045 462.975 241.74 477.228 242.071C477.228 242.071 478.769 235.736 471.463 233.218C464.158 230.702 459.676 235.042 459.676 235.042V235.045Z" fill="#3D3C3B"/>
<path d="M457.649 243.188C457.649 243.188 462.047 241.894 462.615 234.614C462.615 234.614 458.16 235.294 457.649 243.188Z" fill="#3D3C3B"/>
<path d="M464.622 244.34C464.611 244.369 463.532 244.224 463.425 244.218C462.79 244.172 462.12 244.136 461.52 244.39C461.262 244.499 461.049 244.682 460.844 244.87C460.651 245.047 460.441 245.315 460.199 245.414C460.208 245.333 460.255 245.251 460.296 245.179C460.515 244.777 460.739 244.356 461.052 244.018C461.486 243.551 462.285 243.327 462.907 243.272C463.527 243.218 464.966 243.408 464.625 244.34H464.622Z" fill="#3D3C3B"/>
<path d="M470.173 244.387C470.186 244.417 471.254 244.204 471.361 244.19C471.992 244.106 472.66 244.025 473.273 244.242C473.538 244.335 473.761 244.503 473.979 244.677C474.18 244.843 474.409 245.097 474.658 245.178C474.644 245.097 474.59 245.02 474.547 244.949C474.302 244.564 474.053 244.156 473.719 243.841C473.255 243.401 472.445 243.229 471.82 243.213C471.198 243.197 469.772 243.481 470.175 244.387H470.173Z" fill="#3D3C3B"/>
<path d="M460.133 248.016C460.133 248.821 459.481 249.471 458.68 249.471C457.879 249.471 457.228 248.821 457.228 248.016C457.228 247.212 457.879 246.561 458.68 246.561C459.481 246.561 460.133 247.214 460.133 248.016Z" fill="#F8BD8C"/>
<path d="M477.551 248.016C477.551 248.821 476.9 249.471 476.099 249.471C475.298 249.471 474.646 248.821 474.646 248.016C474.646 247.212 475.298 246.561 476.099 246.561C476.9 246.561 477.551 247.214 477.551 248.016Z" fill="#F8BD8C"/>
<path d="M462.656 247.069C461.699 247.069 461.018 246.532 461.009 246.522C460.889 246.425 460.871 246.25 460.968 246.13C461.065 246.01 461.239 245.992 461.357 246.09C461.409 246.13 462.575 247.035 463.932 246.078C464.057 245.99 464.231 246.019 464.319 246.146C464.407 246.271 464.378 246.445 464.251 246.534C463.683 246.935 463.136 247.069 462.658 247.069H462.656Z" fill="#3D3C3B"/>
<path d="M471.806 247.069C470.849 247.069 470.168 246.532 470.159 246.522C470.039 246.425 470.021 246.25 470.118 246.13C470.216 246.012 470.39 245.992 470.508 246.09C470.557 246.128 471.725 247.035 473.083 246.078C473.209 245.99 473.381 246.019 473.469 246.146C473.558 246.271 473.528 246.445 473.402 246.534C472.834 246.935 472.286 247.069 471.809 247.069H471.806Z" fill="#3D3C3B"/>
<path d="M528.789 346.214H388.635C379.379 337.202 378.379 325.665 388.635 318.877H528.789V322.15H524.349V342.556H528.789V346.216V346.214Z" fill="#4D4D84"/>
<path d="M545.549 346.214H405.395C396.139 337.202 395.136 325.665 405.395 318.877H545.549V322.15H541.107V342.556H545.549V346.216V346.214Z" fill="#5C5C8E"/>
<path d="M541.107 342.556H408.02C401.61 338.034 401.422 326.291 408.02 322.15H541.107V342.556Z" fill="white"/>
<path d="M408.115 342.556H408.02C404.789 340.278 403.14 336.164 403.142 332.116C403.142 328.129 404.748 324.204 408.02 322.15H541.107V325.953H411.396C406.228 329.199 405.223 337.109 408.115 342.556Z" fill="#D6D2CB"/>
<path d="M541.175 373.505H396.29C392.545 373.505 389.509 370.464 389.509 366.713V352.617C389.509 348.866 392.545 345.824 396.29 345.824H541.023C542.175 345.824 543.109 346.76 543.109 347.914V371.568C543.109 372.637 542.243 373.505 541.175 373.505Z" fill="#FE6E8D"/>
<path d="M426.452 345.824H413.274V373.505H426.452V345.824Z" fill="#EF658A"/>
<path d="M419.651 335.122H527.334C527.75 335.122 528.087 335.459 528.087 335.876V336.726C528.087 337.143 527.75 337.481 527.334 337.481H419.651C419.234 337.481 418.897 337.143 418.897 336.726V335.876C418.897 335.459 419.234 335.122 419.651 335.122Z" fill="#E3DCD5"/>
<path d="M452.127 264.763C447.231 265.464 435.517 293.02 439.013 299.324C442.509 305.629 461.742 312.984 461.742 312.984L460.694 302.125C460.694 302.125 447.523 296.52 448.57 293.018C449.62 289.514 457.196 276.436 457.196 276.436L452.125 264.761L452.127 264.763Z" fill="#EF658A"/>
<path d="M498.031 299.324C494.533 305.629 475.3 312.987 475.3 312.987L476.35 302.128C476.35 302.128 489.521 296.52 488.471 293.018C488.148 291.935 487.2 289.936 486.044 287.692C483.464 282.678 479.848 276.439 479.848 276.439L484.905 264.764C485.186 264.804 485.491 264.931 485.813 265.14C491.101 268.558 501.326 293.379 498.031 299.324Z" fill="#EF658A"/>
<path d="M495.576 319.755H444.606C443.106 319.755 441.891 318.537 441.891 317.035V290.414C441.891 288.911 443.106 287.694 444.606 287.694H492.861C494.361 287.694 495.576 288.911 495.576 290.414V319.755Z" fill="#3D3D6B"/>
<path d="M465.14 336.86C465.14 336.86 464.19 337.764 461.396 338.943C458.52 340.153 452.833 342.406 453.687 344.89C454.831 348.229 458.841 347.986 461.5 347.186C467.263 345.452 473.259 341.382 473.259 341.382L465.138 336.862L465.14 336.86Z" fill="#3D3D6B"/>
<path d="M472.031 328.143C481.776 321.015 486.869 315.752 497.81 309.093C500.412 307.508 502.195 307.035 506.711 308.809C510.556 310.321 510.144 316.946 508.046 319.709C501.751 327.998 477.497 339.442 472.592 341.175C470.478 341.921 463.002 335.618 466.039 332.599C467.534 331.112 469.394 330.069 472.028 328.143H472.031Z" fill="#9794D3"/>
<path d="M467.537 341.869C467.537 341.869 469.912 345.015 472.675 347.157C475.979 349.716 478.257 350.561 480.941 349.312C484.831 347.504 481.253 343.678 478.233 340.652C473.759 336.171 470.557 334.312 470.557 334.312L467.537 341.869Z" fill="#3D3D6B"/>
<path d="M468.03 332.508L472.189 335.951C472.189 335.951 473.632 337.123 474.361 338.489C475.719 341.026 471.035 346.171 467.994 343.145C464.953 340.119 462.237 336.858 462.237 336.858L468.028 332.51L468.03 332.508Z" fill="#F8BD8C"/>
<path d="M455.637 337.946C444.308 332.234 437.363 330.181 430.082 319.904C428.229 317.286 427.484 312.957 428.206 310.82C429.093 308.186 432.928 306.611 437.442 307.69C441.235 308.596 466.679 328.564 470.652 332.329C472.365 333.95 467.148 342.062 462.873 340.666C460.767 339.979 458.701 339.494 455.635 337.948L455.637 337.946Z" fill="#9794D3"/>
<path d="M487.019 287.694H451.121L452.128 264.766H484.908C485.188 264.807 485.494 264.934 485.815 265.142L487.019 287.694Z" fill="#FE6E8D"/>
<path d="M470.652 259.668C471.282 259.668 471.589 259.637 471.82 260.221C472.078 260.872 472.383 262.096 474.237 262.438C477.436 263.03 483.19 263.247 485.566 265.142C485.806 265.332 485.892 265.659 485.797 265.951L484.396 270.305C484.299 270.609 484.018 270.82 483.699 270.829L454.15 271.602C453.786 271.611 453.467 271.357 453.392 270.999L452.32 265.756C452.236 265.35 452.496 264.952 452.901 264.868C454.592 264.512 458.814 263.147 461.785 262.452C462.095 262.379 462.269 262.184 462.305 261.867L462.613 260.339C462.656 259.958 462.98 259.671 463.362 259.671H470.652V259.668Z" fill="#FE6E8D"/>
<path d="M455.836 251.291C455.99 251.405 455.97 251.486 455.947 251.565L455.886 251.801C455.843 251.958 455.795 252.114 455.746 252.266C455.646 252.572 455.535 252.873 455.418 253.17C455.184 253.764 454.927 254.344 454.673 254.92C454.171 256.076 453.666 257.239 453.096 258.37C452.811 258.936 452.521 259.498 452.207 260.054C452.048 260.33 451.883 260.604 451.704 260.872C451.523 261.139 451.347 261.391 451.177 261.654C450.496 262.692 449.851 263.793 449.661 265.015C449.652 265.079 449.593 265.119 449.532 265.11C449.473 265.101 449.433 265.047 449.437 264.988C449.491 264.342 449.691 263.716 449.949 263.129C450.207 262.542 450.514 261.98 450.845 261.438C451.01 261.169 451.189 260.899 451.354 260.641C451.519 260.38 451.673 260.11 451.82 259.836C452.114 259.288 452.388 258.721 452.655 258.154C453.189 257.016 453.693 255.87 454.182 254.705C454.431 254.124 454.682 253.549 454.906 252.968C455.017 252.678 455.123 252.386 455.216 252.094C455.264 251.946 455.304 251.799 455.345 251.652L455.402 251.429C455.413 251.355 455.427 251.282 455.614 251.241H455.621C455.698 251.223 455.777 251.241 455.836 251.287V251.291Z" fill="#3D3C3B"/>
<path d="M467.58 253.308C466.742 253.308 466.095 253.041 466.084 253.034C465.987 252.993 465.941 252.88 465.982 252.783C466.023 252.685 466.136 252.64 466.233 252.68C466.319 252.717 468.351 253.553 469.731 251.973C469.802 251.894 469.924 251.885 470.003 251.955C470.082 252.025 470.091 252.148 470.021 252.227C469.272 253.084 468.344 253.308 467.577 253.308H467.58Z" fill="#3D3C3B"/>
<path d="M467.15 248.295C467.15 248.295 467.138 248.295 467.132 248.295C467.071 248.286 467.028 248.227 467.039 248.163C467.134 247.597 467.177 247.157 467.157 246.337C467.157 246.273 467.204 246.221 467.267 246.221H467.27C467.331 246.221 467.381 246.271 467.383 246.332C467.403 247.168 467.356 247.633 467.263 248.202C467.254 248.259 467.206 248.297 467.152 248.297L467.15 248.295Z" fill="#3D3C3B"/>
<path d="M476.873 200.598C476.873 195.491 472.564 191.393 467.39 191.752C463.075 192.051 459.558 195.514 459.196 199.832C458.995 202.218 459.739 204.426 461.095 206.126C462.443 207.817 463.233 209.882 463.233 212.046V214C463.233 215.185 464.192 216.149 465.378 216.149H470.657C471.84 216.149 472.802 215.188 472.802 214V212.046C472.802 209.886 473.589 207.819 474.936 206.133C476.146 204.616 476.873 202.694 476.873 200.6V200.598Z" fill="#A8A1E2"/>
<path d="M464.491 217.229H471.546C471.978 217.229 472.329 217.581 472.329 218.014V220.103C472.329 220.536 471.978 220.888 471.546 220.888H464.491C464.059 220.888 463.708 220.536 463.708 220.103V218.016C463.708 217.583 464.059 217.232 464.491 217.232V217.229Z" fill="#56548C"/>
<path d="M468.462 212.606C468.329 212.606 468.202 212.547 468.116 212.445C467.238 211.411 466.344 209.174 466.953 207.669C467.152 207.175 467.503 206.783 467.813 206.439C468.089 206.13 468.351 205.838 468.487 205.509C468.933 204.43 468.256 203.127 467.657 201.978C467.503 201.683 467.365 201.416 467.245 201.158C466.964 200.552 466.6 199.632 466.699 198.667C466.785 197.805 467.326 196.804 468.333 196.507C468.451 196.473 468.573 196.486 468.677 196.545C468.783 196.604 468.86 196.699 468.894 196.815C468.928 196.93 468.915 197.053 468.858 197.159C468.799 197.266 468.704 197.343 468.589 197.377C468.082 197.527 467.668 198.107 467.602 198.757C467.528 199.501 467.833 200.265 468.068 200.774C468.182 201.022 468.32 201.282 468.462 201.559C469.152 202.885 469.933 204.385 469.326 205.856C469.132 206.328 468.79 206.708 468.489 207.044C468.215 207.347 467.935 207.663 467.795 208.009C467.351 209.106 468.1 211.024 468.811 211.86C468.89 211.953 468.926 212.069 468.917 212.191C468.908 212.311 468.851 212.422 468.759 212.499C468.677 212.567 468.573 212.606 468.467 212.606H468.462Z" fill="#EFECF7"/>
<defs>
<linearGradient id="paint0_linear_111_20" x1="176.851" y1="311.933" x2="124.636" y2="311.933" gradientUnits="userSpaceOnUse">
<stop stop-color="#1B1464"/>
<stop offset="1" stop-color="#1B1464"/>
</linearGradient>
<linearGradient id="paint1_linear_111_20" x1="131.572" y1="325.586" x2="109.404" y2="325.586" gradientUnits="userSpaceOnUse">
<stop stop-color="#1B1464"/>
<stop offset="1" stop-color="#1B1464"/>
</linearGradient>
</defs>
</svg>
