<svg width="88" height="101" viewBox="0 0 88 101" fill="none" xmlns="http://www.w3.org/2000/svg">
<path d="M78.5714 44.1875H73.8571V29.9844C73.8571 13.4535 60.4607 0 44 0C27.5393 0 14.1429 13.4535 14.1429 29.9844V44.1875H9.42857C4.22321 44.1875 0 48.4287 0 53.6562V91.5312C0 96.7588 4.22321 101 9.42857 101H78.5714C83.7768 101 88 96.7588 88 91.5312V53.6562C88 48.4287 83.7768 44.1875 78.5714 44.1875ZM58.1429 44.1875H29.8571V29.9844C29.8571 22.1529 36.2018 15.7812 44 15.7812C51.7982 15.7812 58.1429 22.1529 58.1429 29.9844V44.1875Z" fill="white" fill-opacity="0.3"/>
</svg>
