<svg width="28" height="32" viewBox="0 0 28 32" fill="none" xmlns="http://www.w3.org/2000/svg">
<path d="M26.284 20.215C25.716 18.682 24.422 17.498 22.823 17.049C21.5 16.678 20.051 16.826 18.589 17.459C19.354 16.412 19.79 15.61 19.818 15L19.82 14.958C19.845 13.482 17.659 11.543 15.545 9.66602C14.263 8.52802 12.81 7.23902 12.644 6.64502C12.586 6.44002 12.524 6.19802 12.456 5.92702C11.91 3.79402 10.996 0.227023 8.80603 0.00102262C6.69903 -0.0369774 5.59603 1.95202 5.52603 5.91002C5.44903 10.215 6.60503 17.108 8.86703 25.885C8.78203 25.84 8.70203 25.799 8.63303 25.762C8.74603 25.363 8.68103 24.991 8.42703 24.82C8.15103 24.632 7.73203 24.741 7.38103 25.051C6.84603 24.437 6.51703 23.469 6.19803 22.528C5.77403 21.266 5.32903 19.972 4.36603 19.473C4.28603 19.405 4.18703 19.358 4.07303 19.357C3.81103 19.352 3.59503 19.56 3.59103 19.823C3.58703 20.087 3.79403 20.302 4.05703 20.306C4.26503 20.309 4.44003 20.176 4.50703 19.991C5.14203 20.524 5.49503 21.553 5.86203 22.641C6.17503 23.57 6.49703 24.525 7.02803 25.19C5.54303 24.938 4.51003 24.878 3.66503 24.831C2.60503 24.769 1.89903 24.726 1.02403 24.341C1.08403 24.264 1.12703 24.171 1.12803 24.067C1.13303 23.804 0.924027 23.588 0.661027 23.584C0.401027 23.578 0.184027 23.787 0.179027 24.049C0.175027 24.278 0.338027 24.463 0.554027 24.512C1.65003 25.067 2.45803 25.117 3.64603 25.188C4.48603 25.235 5.51503 25.295 6.99203 25.547C6.70703 26.068 6.72103 26.627 7.05103 26.851C7.28903 27.014 7.63403 26.954 7.95003 26.734C8.32803 27.141 8.86703 27.741 9.28403 28.258C10.052 29.213 14.658 32.112 15.24 31.879C15.464 31.789 14.998 31.127 14.274 30.305C14.479 30.409 14.667 30.5 14.827 30.576C15.062 30.672 20.573 32.861 23.723 31.625C26.352 31.571 27.769 30.039 27.821 27.187C27.851 25.369 27.35 23.088 26.284 20.215ZM6.47603 5.92702C6.53603 2.59802 7.31303 0.924023 8.74603 0.948023C10.238 1.10302 11.113 4.52102 11.534 6.16402C11.605 6.44002 11.668 6.69002 11.726 6.90002C11.955 7.72202 13.086 8.75602 14.913 10.377C16.59 11.865 18.887 13.903 18.87 14.941L19.345 14.949L18.869 14.957C18.838 15.654 17.602 17.253 16.248 18.892C15.616 19.458 14.366 20.975 13.183 22.591C12.095 23.966 11.187 25.264 10.777 26.325C10.685 26.509 10.607 26.677 10.548 26.829C10.365 26.722 10.187 26.618 10.015 26.518C7.62103 17.406 6.39803 10.287 6.47603 5.92702ZM23.623 30.674H23.53L23.443 30.711C20.667 31.873 15.235 29.715 15.209 29.707C13.693 28.977 11.992 27.992 11.485 27.498C11.491 27.428 11.496 27.356 11.492 27.278C11.512 27.084 11.576 26.861 11.671 26.621C12.1 25.814 12.921 24.564 13.82 23.317C14.5 22.453 15.251 21.558 15.97 20.703C16.306 20.303 16.621 19.928 16.919 19.567C18.849 18.052 20.853 17.483 22.565 17.963C23.873 18.33 24.929 19.295 25.392 20.543C25.768 21.56 26.913 24.647 26.869 27.168C26.827 29.545 25.795 30.658 23.623 30.674Z" fill="white"/>
<path d="M8.37298 8.40302C9.24398 8.87902 10.629 8.60102 10.748 7.49302C10.867 6.50402 10.154 5.43502 9.71898 4.68202C9.44198 4.20702 10.134 1.79202 8.63998 1.96002C7.14598 2.13002 7.42298 5.31602 7.50198 6.22802C7.54198 7.02002 7.62098 8.00902 8.37298 8.40302Z" fill="white"/>
<path d="M13.1631 16.0451C12.3311 18.1831 11.3021 20.3191 10.6291 22.5371C10.5111 22.9331 12.0951 22.4591 12.7671 21.5861C13.4011 20.8361 17.7861 16.2291 17.3611 14.6601C16.9341 13.0911 15.5011 12.6811 14.3511 13.5911C13.6381 14.1461 13.4801 15.2141 13.1631 16.0451Z" fill="white"/>
<path d="M10.55 17.944C10.708 16.756 10.629 15.49 10.59 14.342C10.59 13.154 10.511 12.045 10.036 10.938C9.56001 9.82899 7.93701 10.225 7.93701 10.225C7.93701 10.225 9.32301 19.21 9.44101 21.151C10.273 20.836 10.471 18.697 10.55 17.944Z" fill="white"/>
<path d="M11.473 10.5938C12.502 10.1188 12.522 9.11881 11.314 8.85181C10.107 8.58481 10.087 11.1878 11.473 10.5938Z" fill="white"/>
<path d="M13.575 12.9202C14.412 12.9202 14.116 12.1532 14.116 12.1532L13.854 11.9092C13.121 11.4572 12.425 12.9572 13.575 12.9202Z" fill="white"/>
<path d="M13.3451 10.6899C12.8131 10.3609 12.3061 11.4499 13.1421 11.4239C13.7501 11.4239 13.5351 10.8669 13.5351 10.8669L13.3451 10.6899Z" fill="white"/>
<path d="M14.985 12.9212C15.593 12.9212 15.378 12.3642 15.378 12.3642L15.189 12.1852C14.656 11.8572 14.15 12.9462 14.985 12.9212Z" fill="white"/>
<path d="M12.89 9.66992C13.261 9.66992 13.13 9.32992 13.13 9.32992L13.014 9.22192C12.69 9.02092 12.38 9.68692 12.89 9.66992Z" fill="white"/>
<path d="M13.406 10.1568C13.777 10.1568 13.645 9.81681 13.645 9.81681L13.53 9.70781C13.204 9.50681 12.896 10.1718 13.406 10.1568Z" fill="white"/>
<path d="M13.938 10.6442C14.309 10.6442 14.177 10.3032 14.177 10.3032L14.062 10.1952C13.738 9.99416 13.428 10.6582 13.938 10.6442Z" fill="white"/>
<path d="M14.6301 11.1678C15.0011 11.1678 14.8701 10.8278 14.8701 10.8278L14.7541 10.7198C14.4291 10.5208 14.1201 11.1858 14.6301 11.1678Z" fill="white"/>
<path d="M14.0101 11.6559C14.3811 11.6559 14.2501 11.3149 14.2501 11.3149L14.1341 11.2069C13.8091 11.0059 13.5001 11.6699 14.0101 11.6559Z" fill="white"/>
<path d="M12.6241 10.3982C12.9951 10.3982 12.8631 10.0592 12.8631 10.0592L12.7471 9.95117C12.4231 9.75117 12.1151 10.4152 12.6241 10.3982Z" fill="white"/>
<path d="M11.946 11.6821C11.55 11.5621 11.462 13.7101 11.422 14.2651C11.343 14.8981 11.303 15.6501 11.343 16.2841C12.135 15.7691 12.332 14.2651 12.65 13.4331C12.807 12.9571 12.658 11.7991 11.946 11.6821Z" fill="white"/>
<path d="M24.01 21.9029C24.169 21.3479 23.584 19.8689 22.229 19.3689C20.874 18.8709 20.21 19.1329 19.259 19.5679C17.361 20.3589 15.577 22.2589 14.39 23.8819C13.836 24.6339 13.441 25.5049 12.886 26.2959C14.628 25.5049 16.569 25.7409 18.389 25.2279C20.13 24.7539 23.417 23.9239 24.01 21.9029Z" fill="white"/>
<path d="M24.96 22.0621C24.234 21.5231 23.575 25.7851 22.585 26.6151C21.596 27.4471 20.323 27.6101 19.492 28.1641C18.898 28.6011 18.429 29.1881 19.179 29.7831C20.05 30.4571 20.882 30.3361 21.95 30.2971C22.9 30.2581 24.224 29.8791 25.038 29.5861C26.587 28.8881 25.997 22.8321 24.96 22.0621Z" fill="white"/>
<path d="M22.196 25.3279C21.903 24.8439 17.955 26.0599 16.214 26.4569C15.619 26.5759 12.73 26.6409 13.126 27.5099C13.442 28.2239 15.778 29.1489 16.491 29.0299C17.361 28.8709 22.487 25.8129 22.196 25.3279Z" fill="white"/>
</svg>
