<svg width="332" height="54" viewBox="0 0 332 54" fill="none" xmlns="http://www.w3.org/2000/svg">
<path d="M30.0447 16.5543V38H26.527V16.5543H30.0447ZM43.2414 20.72C44.5786 20.72 45.7717 20.9977 46.8209 21.5531C47.8906 22.1086 48.7237 22.9314 49.3203 24.0217C49.9169 25.112 50.2152 26.4286 50.2152 27.9714V38H46.7283V28.496C46.7283 26.9737 46.3477 25.8114 45.5866 25.0091C44.8254 24.1863 43.7866 23.7749 42.47 23.7749C41.1534 23.7749 40.1043 24.1863 39.3226 25.0091C38.5614 25.8114 38.1809 26.9737 38.1809 28.496V38H34.6632V20.9977H38.1809V22.9417C38.7569 22.2423 39.4872 21.6971 40.3717 21.3063C41.2769 20.9154 42.2334 20.72 43.2414 20.72ZM62.0771 38.2777C60.4725 38.2777 59.0222 37.9177 57.7262 37.1977C56.4302 36.4571 55.4119 35.4286 54.6714 34.112C53.9308 32.7749 53.5605 31.232 53.5605 29.4834C53.5605 27.7554 53.9411 26.2229 54.7022 24.8857C55.4634 23.5486 56.5022 22.52 57.8188 21.8C59.1354 21.08 60.6062 20.72 62.2314 20.72C63.8565 20.72 65.3274 21.08 66.6439 21.8C67.9605 22.52 68.9994 23.5486 69.7605 24.8857C70.5216 26.2229 70.9022 27.7554 70.9022 29.4834C70.9022 31.2114 70.5114 32.744 69.7296 34.0811C68.9479 35.4183 67.8782 36.4571 66.5205 37.1977C65.1834 37.9177 63.7022 38.2777 62.0771 38.2777ZM62.0771 35.2229C62.9822 35.2229 63.8256 35.0069 64.6074 34.5749C65.4096 34.1429 66.0576 33.4949 66.5514 32.6309C67.0451 31.7669 67.2919 30.7177 67.2919 29.4834C67.2919 28.2491 67.0554 27.2103 66.5822 26.3669C66.1091 25.5029 65.4816 24.8549 64.6999 24.4229C63.9182 23.9909 63.0748 23.7749 62.1696 23.7749C61.2645 23.7749 60.4211 23.9909 59.6394 24.4229C58.8782 24.8549 58.2714 25.5029 57.8188 26.3669C57.3662 27.2103 57.1399 28.2491 57.1399 29.4834C57.1399 31.3143 57.6028 32.7337 58.5285 33.7417C59.4748 34.7291 60.6576 35.2229 62.0771 35.2229ZM80.9522 34.8526L85.766 20.9977H89.4997L83.0197 38H78.8231L72.374 20.9977H76.1385L80.9522 34.8526ZM90.9861 29.4217C90.9861 27.7143 91.3358 26.2023 92.0353 24.8857C92.7553 23.5691 93.7221 22.5509 94.9358 21.8309C96.1701 21.0903 97.5278 20.72 99.009 20.72C100.346 20.72 101.508 20.9874 102.496 21.5223C103.504 22.0366 104.306 22.6846 104.903 23.4663V20.9977H108.451V38H104.903V35.4697C104.306 36.272 103.494 36.9406 102.465 37.4754C101.436 38.0103 100.264 38.2777 98.9473 38.2777C97.4867 38.2777 96.1495 37.9074 94.9358 37.1669C93.7221 36.4057 92.7553 35.3566 92.0353 34.0194C91.3358 32.6617 90.9861 31.1291 90.9861 29.4217ZM104.903 29.4834C104.903 28.3109 104.656 27.2926 104.162 26.4286C103.689 25.5646 103.062 24.9063 102.28 24.4537C101.498 24.0011 100.655 23.7749 99.7495 23.7749C98.8444 23.7749 98.001 24.0011 97.2193 24.4537C96.4375 24.8857 95.7998 25.5337 95.3061 26.3977C94.833 27.2411 94.5964 28.2491 94.5964 29.4217C94.5964 30.5943 94.833 31.6229 95.3061 32.5074C95.7998 33.392 96.4375 34.0709 97.2193 34.544C98.0215 34.9966 98.865 35.2229 99.7495 35.2229C100.655 35.2229 101.498 34.9966 102.28 34.544C103.062 34.0914 103.689 33.4331 104.162 32.5691C104.656 31.6846 104.903 30.656 104.903 29.4834ZM111.899 29.4834C111.899 27.7349 112.249 26.2023 112.948 24.8857C113.668 23.5486 114.656 22.52 115.91 21.8C117.165 21.08 118.605 20.72 120.23 20.72C122.288 20.72 123.985 21.2137 125.322 22.2011C126.68 23.168 127.595 24.5566 128.068 26.3669H124.273C123.964 25.5234 123.47 24.8651 122.792 24.392C122.113 23.9189 121.259 23.6823 120.23 23.6823C118.79 23.6823 117.638 24.1966 116.774 25.2251C115.931 26.2331 115.509 27.6526 115.509 29.4834C115.509 31.3143 115.931 32.744 116.774 33.7726C117.638 34.8011 118.79 35.3154 120.23 35.3154C122.267 35.3154 123.614 34.4206 124.273 32.6309H128.068C127.574 34.3589 126.649 35.7371 125.291 36.7657C123.933 37.7737 122.246 38.2777 120.23 38.2777C118.605 38.2777 117.165 37.9177 115.91 37.1977C114.656 36.4571 113.668 35.4286 112.948 34.112C112.249 32.7749 111.899 31.232 111.899 29.4834ZM130.401 29.4834C130.401 27.7349 130.751 26.2023 131.45 24.8857C132.17 23.5486 133.158 22.52 134.413 21.8C135.668 21.08 137.108 20.72 138.733 20.72C140.79 20.72 142.487 21.2137 143.824 22.2011C145.182 23.168 146.097 24.5566 146.57 26.3669H142.775C142.466 25.5234 141.973 24.8651 141.294 24.392C140.615 23.9189 139.761 23.6823 138.733 23.6823C137.293 23.6823 136.141 24.1966 135.277 25.2251C134.433 26.2331 134.012 27.6526 134.012 29.4834C134.012 31.3143 134.433 32.744 135.277 33.7726C136.141 34.8011 137.293 35.3154 138.733 35.3154C140.769 35.3154 142.117 34.4206 142.775 32.6309H146.57C146.077 34.3589 145.151 35.7371 143.793 36.7657C142.436 37.7737 140.749 38.2777 138.733 38.2777C137.108 38.2777 135.668 37.9177 134.413 37.1977C133.158 36.4571 132.17 35.4286 131.45 34.112C130.751 32.7749 130.401 31.232 130.401 29.4834ZM151.866 18.7451C151.228 18.7451 150.693 18.5291 150.261 18.0971C149.829 17.6651 149.613 17.1303 149.613 16.4926C149.613 15.8549 149.829 15.32 150.261 14.888C150.693 14.456 151.228 14.24 151.866 14.24C152.483 14.24 153.008 14.456 153.44 14.888C153.872 15.32 154.088 15.8549 154.088 16.4926C154.088 17.1303 153.872 17.6651 153.44 18.0971C153.008 18.5291 152.483 18.7451 151.866 18.7451ZM153.594 20.9977V38H150.076V20.9977H153.594ZM179.157 33.6183H170.178L168.635 38H164.963L172.646 16.5234H176.719L184.403 38H180.7L179.157 33.6183ZM178.17 30.7486L174.683 20.7817L171.165 30.7486H178.17ZM186.571 29.4834C186.571 27.7349 186.921 26.2023 187.62 24.8857C188.34 23.5486 189.328 22.52 190.582 21.8C191.837 21.08 193.277 20.72 194.902 20.72C196.959 20.72 198.657 21.2137 199.994 22.2011C201.352 23.168 202.267 24.5566 202.74 26.3669H198.945C198.636 25.5234 198.142 24.8651 197.464 24.392C196.785 23.9189 195.931 23.6823 194.902 23.6823C193.462 23.6823 192.31 24.1966 191.446 25.2251C190.603 26.2331 190.181 27.6526 190.181 29.4834C190.181 31.3143 190.603 32.744 191.446 33.7726C192.31 34.8011 193.462 35.3154 194.902 35.3154C196.939 35.3154 198.286 34.4206 198.945 32.6309H202.74C202.246 34.3589 201.321 35.7371 199.963 36.7657C198.605 37.7737 196.918 38.2777 194.902 38.2777C193.277 38.2777 191.837 37.9177 190.582 37.1977C189.328 36.4571 188.34 35.4286 187.62 34.112C186.921 32.7749 186.571 31.232 186.571 29.4834ZM205.073 29.4217C205.073 27.7143 205.423 26.2023 206.122 24.8857C206.842 23.5691 207.809 22.5509 209.023 21.8309C210.257 21.0903 211.615 20.72 213.096 20.72C214.433 20.72 215.595 20.9874 216.583 21.5223C217.591 22.0366 218.393 22.6846 218.99 23.4663V20.9977H222.538V38H218.99V35.4697C218.393 36.272 217.581 36.9406 216.552 37.4754C215.523 38.0103 214.351 38.2777 213.034 38.2777C211.574 38.2777 210.237 37.9074 209.023 37.1669C207.809 36.4057 206.842 35.3566 206.122 34.0194C205.423 32.6617 205.073 31.1291 205.073 29.4217ZM218.99 29.4834C218.99 28.3109 218.743 27.2926 218.249 26.4286C217.776 25.5646 217.149 24.9063 216.367 24.4537C215.585 24.0011 214.742 23.7749 213.837 23.7749C212.931 23.7749 212.088 24.0011 211.306 24.4537C210.525 24.8857 209.887 25.5337 209.393 26.3977C208.92 27.2411 208.683 28.2491 208.683 29.4217C208.683 30.5943 208.92 31.6229 209.393 32.5074C209.887 33.392 210.525 34.0709 211.306 34.544C212.109 34.9966 212.952 35.2229 213.837 35.2229C214.742 35.2229 215.585 34.9966 216.367 34.544C217.149 34.0914 217.776 33.4331 218.249 32.5691C218.743 31.6846 218.99 30.656 218.99 29.4834ZM225.986 29.4217C225.986 27.7143 226.336 26.2023 227.035 24.8857C227.755 23.5691 228.722 22.5509 229.936 21.8309C231.17 21.0903 232.538 20.72 234.04 20.72C235.151 20.72 236.241 20.9669 237.311 21.4606C238.401 21.9337 239.265 22.5714 239.903 23.3737V15.1657H243.451V38H239.903V35.4389C239.327 36.2617 238.524 36.9406 237.496 37.4754C236.488 38.0103 235.326 38.2777 234.009 38.2777C232.528 38.2777 231.17 37.9074 229.936 37.1669C228.722 36.4057 227.755 35.3566 227.035 34.0194C226.336 32.6617 225.986 31.1291 225.986 29.4217ZM239.903 29.4834C239.903 28.3109 239.656 27.2926 239.162 26.4286C238.689 25.5646 238.062 24.9063 237.28 24.4537C236.498 24.0011 235.655 23.7749 234.75 23.7749C233.844 23.7749 233.001 24.0011 232.219 24.4537C231.438 24.8857 230.8 25.5337 230.306 26.3977C229.833 27.2411 229.596 28.2491 229.596 29.4217C229.596 30.5943 229.833 31.6229 230.306 32.5074C230.8 33.392 231.438 34.0709 232.219 34.544C233.022 34.9966 233.865 35.2229 234.75 35.2229C235.655 35.2229 236.498 34.9966 237.28 34.544C238.062 34.0914 238.689 33.4331 239.162 32.5691C239.656 31.6846 239.903 30.656 239.903 29.4834ZM263.654 29.0823C263.654 29.72 263.613 30.296 263.531 30.8103H250.54C250.643 32.168 251.147 33.2583 252.052 34.0811C252.957 34.904 254.068 35.3154 255.385 35.3154C257.277 35.3154 258.614 34.5234 259.396 32.9394H263.192C262.677 34.5029 261.741 35.7886 260.384 36.7966C259.046 37.784 257.38 38.2777 255.385 38.2777C253.76 38.2777 252.299 37.9177 251.003 37.1977C249.728 36.4571 248.72 35.4286 247.979 34.112C247.259 32.7749 246.899 31.232 246.899 29.4834C246.899 27.7349 247.249 26.2023 247.948 24.8857C248.668 23.5486 249.666 22.52 250.941 21.8C252.237 21.08 253.718 20.72 255.385 20.72C256.989 20.72 258.419 21.0697 259.674 21.7691C260.929 22.4686 261.906 23.456 262.605 24.7314C263.305 25.9863 263.654 27.4366 263.654 29.0823ZM259.982 27.9714C259.962 26.6754 259.499 25.6366 258.594 24.8549C257.689 24.0731 256.568 23.6823 255.23 23.6823C254.017 23.6823 252.978 24.0731 252.114 24.8549C251.25 25.616 250.736 26.6549 250.571 27.9714H259.982ZM287.698 20.72C289.035 20.72 290.228 20.9977 291.277 21.5531C292.347 22.1086 293.18 22.9314 293.777 24.0217C294.394 25.112 294.703 26.4286 294.703 27.9714V38H291.216V28.496C291.216 26.9737 290.835 25.8114 290.074 25.0091C289.313 24.1863 288.274 23.7749 286.957 23.7749C285.641 23.7749 284.592 24.1863 283.81 25.0091C283.049 25.8114 282.668 26.9737 282.668 28.496V38H279.181V28.496C279.181 26.9737 278.801 25.8114 278.04 25.0091C277.279 24.1863 276.24 23.7749 274.923 23.7749C273.607 23.7749 272.557 24.1863 271.776 25.0091C271.015 25.8114 270.634 26.9737 270.634 28.496V38H267.116V20.9977H270.634V22.9417C271.21 22.2423 271.94 21.6971 272.825 21.3063C273.709 20.9154 274.656 20.72 275.664 20.72C277.021 20.72 278.235 21.008 279.305 21.584C280.375 22.16 281.197 22.9931 281.773 24.0834C282.288 23.0549 283.09 22.2423 284.18 21.6457C285.271 21.0286 286.443 20.72 287.698 20.72ZM314.484 20.9977L304.054 45.992H300.413L303.869 37.7223L297.173 20.9977H301.092L305.875 33.9577L310.843 20.9977H314.484Z" fill="white"/>
<path d="M-7.62939e-06 38.5717L6.05317 32.5717L12.1064 38.5717V19.3717C12.1064 18.7352 11.9241 18.1247 11.5998 17.6746C11.2755 17.2245 10.8356 16.9717 10.3769 16.9717H1.72947C1.27079 16.9717 0.830887 17.2245 0.506546 17.6746C0.182205 18.1247 -7.62939e-06 18.7352 -7.62939e-06 19.3717V38.5717Z" fill="#EF4369"/>
</svg>
