<svg width="22" height="20" viewBox="0 0 22 20" fill="none" xmlns="http://www.w3.org/2000/svg">
<path d="M0.78125 3.81206H21.0938C21.5252 3.81206 21.875 3.45807 21.875 3.02136V1.04462C21.875 0.607907 21.5252 0.253922 21.0938 0.253922H0.78125C0.349756 0.253922 0 0.607907 0 1.04462V3.02136C0 3.45807 0.349756 3.81206 0.78125 3.81206ZM0.78125 11.719H21.0938C21.5252 11.719 21.875 11.365 21.875 10.9283V8.95158C21.875 8.51487 21.5252 8.16089 21.0938 8.16089H0.78125C0.349756 8.16089 0 8.51487 0 8.95158V10.9283C0 11.365 0.349756 11.719 0.78125 11.719ZM0.78125 19.626H21.0938C21.5252 19.626 21.875 19.272 21.875 18.8353V16.8586C21.875 16.4218 21.5252 16.0679 21.0938 16.0679H0.78125C0.349756 16.0679 0 16.4218 0 16.8586V18.8353C0 19.272 0.349756 19.626 0.78125 19.626Z" fill="white"/>
</svg>
