<svg width="124" height="103" viewBox="0 0 124 103" fill="none" xmlns="http://www.w3.org/2000/svg">
<path opacity="0.1" d="M52.3727 0C53.6563 3.85767 54.2981 7.07241 54.2981 9.64421C54.2981 11.9588 53.913 15.045 53.1429 18.9026C35.942 18.9026 27.3416 27.7753 27.3416 45.5206C27.3416 51.9501 30.6791 55.5506 37.354 56.3221C47.1097 57.0936 51.9876 63.3945 51.9876 75.2247C51.9876 84.226 49.8054 91.1698 45.441 96.0562C41.3333 100.685 33.7598 103 22.7205 103C7.5735 103 0 92.7129 0 72.1386C0 51.5643 4.10766 34.4619 12.323 20.8315C20.5383 6.94382 33.8882 0 52.3727 0ZM122.075 0C123.358 3.85767 124 7.07241 124 9.64421C124 11.9588 123.615 15.045 122.845 18.9026C105.644 18.9026 97.0435 27.7753 97.0435 45.5206C97.0435 51.9501 100.381 55.5506 107.056 56.3221C116.812 57.0936 121.689 63.3945 121.689 75.2247C121.689 84.226 119.507 91.1698 115.143 96.0562C111.035 100.685 103.462 103 92.4224 103C77.2754 103 69.7019 92.7129 69.7019 72.1386C69.7019 51.5643 73.8095 34.4619 82.0248 20.8315C90.2402 6.94382 103.59 0 122.075 0Z" fill="white"/>
</svg>
