<svg width="841" height="321" viewBox="0 0 841 321" fill="none" xmlns="http://www.w3.org/2000/svg">
<g clip-path="url(#clip0_111_159)">
<path d="M811.714 318.459C795.956 318.459 771.447 317.292 771.107 317.69H689.698L665.87 317.651H452.52L390.213 317.61H225.956L157.349 317.571H33.2827C33.2827 317.571 33.078 317.25 32.6657 316.608L32.5966 316.528C32.5966 316.528 32.5274 316.448 32.5274 316.409C32.2535 316.088 -72.0405 172.925 97.9664 110.101C164.484 85.5201 96.63 39.7203 195.08 9.98488C322.016 -28.3527 393.572 58.3053 540.841 26.3204C678.974 -3.68063 760.718 45.2623 751.57 100.663C747.273 126.685 754.943 165.46 783.79 170.717C828.843 178.924 838.89 227.712 832.324 270.189C828.279 296.377 812.27 318.459 811.711 318.459H811.714Z" fill="#DCE4FF"/>
<g opacity="0.5">
<path opacity="0.5" d="M298.482 80.0895H162.701V316.299H298.482V80.0895Z" fill="#DCE9FB"/>
<path opacity="0.5" d="M299.345 159.775H163.564V163.007H299.345V159.775Z" fill="#ABC8F7"/>
<path opacity="0.5" d="M298.482 198.395H162.701V201.624H298.482V198.395Z" fill="#ABC8F7"/>
<path opacity="0.5" d="M298.534 80.0895H163.564V83.775H298.534V80.0895Z" fill="white"/>
<path opacity="0.5" d="M163.564 80.0895H160.108V316.299H163.564V80.0895Z" fill="white"/>
<path opacity="0.5" d="M301.074 80.0895H297.618V316.299H301.074V80.0895Z" fill="white"/>
<path opacity="0.5" d="M297.618 116.05H163.564V119.279H297.618V116.05Z" fill="#ABC8F7"/>
<path opacity="0.5" d="M297.618 240.415H163.564V243.644H297.618V240.415Z" fill="#ABC8F7"/>
<path opacity="0.5" d="M297.618 282.018H163.564V285.247H297.618V282.018Z" fill="#ABC8F7"/>
<g opacity="0.5">
<g opacity="0.5">
<path opacity="0.5" d="M201.91 186.295H205.402V196.798C205.402 197.742 204.638 198.506 203.694 198.506H203.617C202.674 198.506 201.91 197.742 201.91 196.798V186.295Z" fill="#ABC8F7"/>
<path opacity="0.5" d="M202.358 193.033H204.953V196.754C204.953 197.454 204.386 198.021 203.686 198.021H203.628C202.928 198.021 202.361 197.454 202.361 196.754V193.033H202.358Z" fill="#ABC8F7"/>
</g>
<g opacity="0.5">
<path opacity="0.5" d="M207.123 186.295H210.614V196.798C210.614 197.742 209.851 198.506 208.907 198.506H208.83C207.886 198.506 207.123 197.742 207.123 196.798V186.295Z" fill="#ABC8F7"/>
<path opacity="0.5" d="M207.571 191.992H210.163V196.754C210.163 197.454 209.596 198.021 208.896 198.021H208.838C208.138 198.021 207.571 197.454 207.571 196.754V191.992Z" fill="#ABC8F7"/>
</g>
<g opacity="0.5">
<path opacity="0.5" d="M197.195 186.295H200.687V196.798C200.687 197.742 199.923 198.506 198.98 198.506H198.902C197.962 198.506 197.195 197.742 197.195 196.798V186.295Z" fill="#ABC8F7"/>
<path opacity="0.5" d="M197.643 191.992H200.236V196.754C200.236 197.454 199.669 198.021 198.969 198.021H198.911C198.211 198.021 197.643 197.454 197.643 196.754V191.992Z" fill="#ABC8F7"/>
</g>
<g opacity="0.5">
<path opacity="0.5" d="M198.44 196.477H197.458V199.266H198.44V196.477Z" fill="#ABC8F7"/>
<path opacity="0.5" d="M215.23 196.477H214.247V199.266H215.23V196.477Z" fill="#ABC8F7"/>
<path opacity="0.5" d="M215.23 196.477H197.458V197.291H215.23V196.477Z" fill="#ABC8F7"/>
</g>
</g>
<g opacity="0.5">
<g opacity="0.5">
<path opacity="0.5" d="M267.457 227.444H270.949V237.947C270.949 238.891 270.185 239.654 269.241 239.654H269.164C268.223 239.654 267.457 238.891 267.457 237.947V227.444Z" fill="#ABC8F7"/>
<path opacity="0.5" d="M267.908 234.181H270.503V237.903C270.503 238.603 269.936 239.17 269.236 239.17H269.178C268.478 239.17 267.911 238.603 267.911 237.903V234.181H267.908Z" fill="#ABC8F7"/>
</g>
<g opacity="0.5">
<path opacity="0.5" d="M272.67 227.444H276.161V237.947C276.161 238.888 275.398 239.654 274.454 239.654H274.377C273.433 239.654 272.67 238.891 272.67 237.947V227.444Z" fill="#ABC8F7"/>
<path opacity="0.5" d="M273.118 233.141H275.71V237.903C275.71 238.603 275.143 239.17 274.443 239.17H274.385C273.685 239.17 273.118 238.603 273.118 237.903V233.141Z" fill="#ABC8F7"/>
</g>
<g opacity="0.5">
<path opacity="0.5" d="M262.742 227.444H266.234V237.947C266.234 238.891 265.47 239.654 264.527 239.654H264.449C263.506 239.654 262.742 238.891 262.742 237.947V227.444Z" fill="#ABC8F7"/>
<path opacity="0.5" d="M263.19 233.141H265.783V237.903C265.783 238.603 265.216 239.17 264.516 239.17H264.457C263.757 239.17 263.19 238.603 263.19 237.903V233.141Z" fill="#ABC8F7"/>
</g>
<g opacity="0.5">
<path opacity="0.5" d="M263.987 237.629H263.005V240.418H263.987V237.629Z" fill="#ABC8F7"/>
<path opacity="0.5" d="M280.776 237.629H279.794V240.418H280.776V237.629Z" fill="#ABC8F7"/>
<path opacity="0.5" d="M280.776 237.629H263.005V238.442H280.776V237.629Z" fill="#ABC8F7"/>
</g>
</g>
<g opacity="0.5">
<g opacity="0.5">
<path opacity="0.5" d="M180.434 186.295H183.925V196.798C183.925 197.742 183.162 198.506 182.218 198.506H182.141C181.197 198.506 180.434 197.742 180.434 196.798V186.295Z" fill="#ABC8F7"/>
<path opacity="0.5" d="M180.885 193.033H183.477V196.754C183.477 197.454 182.91 198.021 182.21 198.021H182.152C181.452 198.021 180.885 197.454 180.885 196.754V193.033Z" fill="#ABC8F7"/>
</g>
<g opacity="0.5">
<path opacity="0.5" d="M185.646 186.295H189.138V196.798C189.138 197.742 188.374 198.506 187.431 198.506H187.353C186.413 198.506 185.646 197.742 185.646 196.798V186.295Z" fill="#ABC8F7"/>
<path opacity="0.5" d="M186.095 191.992H188.687V196.754C188.687 197.454 188.12 198.021 187.42 198.021H187.362C186.662 198.021 186.095 197.454 186.095 196.754V191.992Z" fill="#ABC8F7"/>
</g>
<g opacity="0.5">
<path opacity="0.5" d="M175.719 186.295H179.211V196.798C179.211 197.742 178.447 198.506 177.503 198.506H177.426C176.485 198.506 175.719 197.742 175.719 196.798V186.295Z" fill="#ABC8F7"/>
<path opacity="0.5" d="M176.167 191.992H178.76V196.754C178.76 197.454 178.192 198.021 177.492 198.021H177.434C176.734 198.021 176.167 197.454 176.167 196.754V191.992Z" fill="#ABC8F7"/>
</g>
<g opacity="0.5">
<path opacity="0.5" d="M176.967 196.477H175.984V199.266H176.967V196.477Z" fill="#ABC8F7"/>
<path opacity="0.5" d="M193.753 196.477H192.771V199.266H193.753V196.477Z" fill="#ABC8F7"/>
<path opacity="0.5" d="M193.756 196.477H175.984V197.291H193.756V196.477Z" fill="#ABC8F7"/>
</g>
</g>
<g opacity="0.5">
<g opacity="0.5">
<path opacity="0.5" d="M217.05 227.444H220.542V237.947C220.542 238.891 219.778 239.654 218.835 239.654H218.757C217.814 239.654 217.05 238.891 217.05 237.947V227.444Z" fill="#ABC8F7"/>
<path opacity="0.5" d="M217.498 234.181H220.094V237.903C220.094 238.603 219.526 239.17 218.826 239.17H218.768C218.068 239.17 217.501 238.603 217.501 237.903V234.181H217.498Z" fill="#ABC8F7"/>
</g>
<g opacity="0.5">
<path opacity="0.5" d="M222.26 227.444H225.752V237.947C225.752 238.891 224.988 239.654 224.045 239.654H223.967C223.024 239.654 222.26 238.891 222.26 237.947V227.444Z" fill="#ABC8F7"/>
<path opacity="0.5" d="M222.711 233.141H225.306V237.903C225.306 238.603 224.739 239.17 224.039 239.17H223.981C223.281 239.17 222.714 238.603 222.714 237.903V233.141H222.711Z" fill="#ABC8F7"/>
</g>
<g opacity="0.5">
<path opacity="0.5" d="M212.333 227.444H215.824V237.947C215.824 238.891 215.061 239.654 214.117 239.654H214.04C213.099 239.654 212.333 238.891 212.333 237.947V227.444Z" fill="#ABC8F7"/>
<path opacity="0.5" d="M212.781 233.141H215.376V237.903C215.376 238.603 214.809 239.17 214.109 239.17H214.051C213.351 239.17 212.784 238.603 212.784 237.903V233.141H212.781Z" fill="#ABC8F7"/>
</g>
<g opacity="0.5">
<path opacity="0.5" d="M213.58 237.629H212.598V240.418H213.58V237.629Z" fill="#ABC8F7"/>
<path opacity="0.5" d="M230.37 237.629H229.388V240.418H230.37V237.629Z" fill="#ABC8F7"/>
<path opacity="0.5" d="M230.37 237.629H212.598V238.442H230.37V237.629Z" fill="#ABC8F7"/>
</g>
</g>
<g opacity="0.5">
<g opacity="0.5">
<path opacity="0.5" d="M195.574 227.444H199.066V237.947C199.066 238.891 198.302 239.654 197.358 239.654H197.281C196.34 239.654 195.574 238.891 195.574 237.947V227.444Z" fill="#ABC8F7"/>
<path opacity="0.5" d="M196.022 234.181H198.617V237.903C198.617 238.603 198.05 239.17 197.35 239.17H197.292C196.592 239.17 196.025 238.603 196.025 237.903V234.181H196.022Z" fill="#ABC8F7"/>
</g>
<g opacity="0.5">
<path opacity="0.5" d="M200.787 227.444H204.278V237.947C204.278 238.891 203.515 239.654 202.571 239.654H202.494C201.553 239.654 200.787 238.891 200.787 237.947V227.444Z" fill="#ABC8F7"/>
<path opacity="0.5" d="M201.235 233.141H203.827V237.903C203.827 238.603 203.26 239.17 202.56 239.17H202.502C201.802 239.17 201.235 238.603 201.235 237.903V233.141Z" fill="#ABC8F7"/>
</g>
<g opacity="0.5">
<path opacity="0.5" d="M190.859 227.444H194.351V237.947C194.351 238.891 193.587 239.654 192.644 239.654H192.566C191.625 239.654 190.859 238.891 190.859 237.947V227.444Z" fill="#ABC8F7"/>
<path opacity="0.5" d="M191.307 233.141H193.9V237.903C193.9 238.603 193.333 239.17 192.633 239.17H192.574C191.874 239.17 191.307 238.603 191.307 237.903V233.141Z" fill="#ABC8F7"/>
</g>
<g opacity="0.5">
<path opacity="0.5" d="M192.104 237.629H191.122V240.418H192.104V237.629Z" fill="#ABC8F7"/>
<path opacity="0.5" d="M208.893 237.629H207.911V240.418H208.893V237.629Z" fill="#ABC8F7"/>
<path opacity="0.5" d="M208.893 237.629H191.122V238.442H208.893V237.629Z" fill="#ABC8F7"/>
</g>
</g>
<g opacity="0.5">
<g opacity="0.5">
<path opacity="0.5" d="M203.999 269.204H207.491V279.707C207.491 280.648 206.727 281.414 205.783 281.414H205.706C204.763 281.414 203.999 280.651 203.999 279.707V269.204Z" fill="#ABC8F7"/>
<path opacity="0.5" d="M204.45 275.942H207.045V279.663C207.045 280.363 206.478 280.93 205.778 280.93H205.72C205.02 280.93 204.453 280.363 204.453 279.663V275.942H204.45Z" fill="#ABC8F7"/>
</g>
<g opacity="0.5">
<path opacity="0.5" d="M209.212 269.204H212.703V279.707C212.703 280.651 211.94 281.414 210.996 281.414H210.919C209.975 281.414 209.212 280.651 209.212 279.707V269.204Z" fill="#ABC8F7"/>
<path opacity="0.5" d="M209.66 274.901H212.255V279.663C212.255 280.363 211.688 280.93 210.988 280.93H210.93C210.23 280.93 209.663 280.363 209.663 279.663V274.901H209.66Z" fill="#ABC8F7"/>
</g>
<g opacity="0.5">
<path opacity="0.5" d="M199.284 269.204H202.776V279.707C202.776 280.651 202.012 281.414 201.069 281.414H200.991C200.048 281.414 199.284 280.651 199.284 279.707V269.204Z" fill="#ABC8F7"/>
<path opacity="0.5" d="M199.732 274.901H202.325V279.663C202.325 280.363 201.758 280.93 201.058 280.93H201C200.3 280.93 199.732 280.363 199.732 279.663V274.901Z" fill="#ABC8F7"/>
</g>
<g opacity="0.5">
<path opacity="0.5" d="M200.532 279.386H199.55V282.175H200.532V279.386Z" fill="#ABC8F7"/>
<path opacity="0.5" d="M217.319 279.386H216.336V282.175H217.319V279.386Z" fill="#ABC8F7"/>
<path opacity="0.5" d="M217.321 279.386H199.55V280.2H217.321V279.386Z" fill="#ABC8F7"/>
</g>
</g>
<g opacity="0.5">
<g opacity="0.5">
<path opacity="0.5" d="M230.563 269.204H234.055V279.707C234.055 280.651 233.292 281.414 232.348 281.414H232.271C231.327 281.414 230.563 280.651 230.563 279.707V269.204Z" fill="#ABC8F7"/>
<path opacity="0.5" d="M231.012 275.942H233.604V279.663C233.604 280.363 233.037 280.93 232.337 280.93H232.279C231.579 280.93 231.012 280.363 231.012 279.663V275.942Z" fill="#ABC8F7"/>
</g>
<g opacity="0.5">
<path opacity="0.5" d="M235.776 269.204H239.268V279.707C239.268 280.651 238.504 281.414 237.561 281.414H237.483C236.54 281.414 235.776 280.651 235.776 279.707V269.204Z" fill="#ABC8F7"/>
<path opacity="0.5" d="M236.224 274.901H238.817V279.663C238.817 280.363 238.25 280.93 237.55 280.93H237.492C236.792 280.93 236.224 280.363 236.224 279.663V274.901Z" fill="#ABC8F7"/>
</g>
<g opacity="0.5">
<path opacity="0.5" d="M225.849 269.204H229.341V279.707C229.341 280.651 228.577 281.414 227.633 281.414H227.556C226.612 281.414 225.849 280.651 225.849 279.707V269.204Z" fill="#ABC8F7"/>
<path opacity="0.5" d="M226.297 274.901H228.89V279.663C228.89 280.363 228.322 280.93 227.622 280.93H227.564C226.864 280.93 226.297 280.363 226.297 279.663V274.901Z" fill="#ABC8F7"/>
</g>
<g opacity="0.5">
<path opacity="0.5" d="M227.094 279.386H226.112V282.175H227.094V279.386Z" fill="#ABC8F7"/>
<path opacity="0.5" d="M243.883 279.386H242.901V282.175H243.883V279.386Z" fill="#ABC8F7"/>
<path opacity="0.5" d="M243.883 279.386H226.112V280.2H243.883V279.386Z" fill="#ABC8F7"/>
</g>
</g>
<g opacity="0.5">
<g opacity="0.5">
<path opacity="0.5" d="M174.1 269.204H177.592V279.707C177.592 280.651 176.828 281.414 175.885 281.414H175.807C174.864 281.414 174.1 280.651 174.1 279.707V269.204Z" fill="#ABC8F7"/>
<path opacity="0.5" d="M174.548 275.942H177.141V279.663C177.141 280.363 176.574 280.93 175.874 280.93H175.816C175.116 280.93 174.548 280.363 174.548 279.663V275.942Z" fill="#ABC8F7"/>
</g>
<g opacity="0.5">
<path opacity="0.5" d="M179.31 269.204H182.802V279.707C182.802 280.651 182.038 281.414 181.095 281.414H181.017C180.074 281.414 179.31 280.651 179.31 279.707V269.204Z" fill="#ABC8F7"/>
<path opacity="0.5" d="M179.761 274.901H182.354V279.663C182.354 280.363 181.786 280.93 181.086 280.93H181.028C180.328 280.93 179.761 280.363 179.761 279.663V274.901Z" fill="#ABC8F7"/>
</g>
<g opacity="0.5">
<path opacity="0.5" d="M169.383 269.204H172.874V279.707C172.874 280.651 172.111 281.414 171.167 281.414H171.09C170.149 281.414 169.383 280.651 169.383 279.707V269.204Z" fill="#ABC8F7"/>
<path opacity="0.5" d="M169.831 274.901H172.423V279.663C172.423 280.363 171.856 280.93 171.156 280.93H171.098C170.398 280.93 169.831 280.363 169.831 279.663V274.901Z" fill="#ABC8F7"/>
</g>
<g opacity="0.5">
<path opacity="0.5" d="M170.631 279.386H169.648V282.175H170.631V279.386Z" fill="#ABC8F7"/>
<path opacity="0.5" d="M187.42 279.386H186.438V282.175H187.42V279.386Z" fill="#ABC8F7"/>
<path opacity="0.5" d="M187.42 279.386H169.648V280.2H187.42V279.386Z" fill="#ABC8F7"/>
</g>
</g>
<g opacity="0.5">
<g opacity="0.5">
<path opacity="0.5" d="M180.434 147.131H183.925V157.633C183.925 158.574 183.162 159.341 182.218 159.341H182.141C181.197 159.341 180.434 158.577 180.434 157.633V147.131Z" fill="#ABC8F7"/>
<path opacity="0.5" d="M180.885 153.865H183.477V157.586C183.477 158.286 182.91 158.854 182.21 158.854H182.152C181.452 158.854 180.885 158.286 180.885 157.586V153.865Z" fill="#ABC8F7"/>
</g>
<g opacity="0.5">
<path opacity="0.5" d="M185.646 147.131H189.138V157.633C189.138 158.574 188.374 159.341 187.431 159.341H187.353C186.413 159.341 185.646 158.577 185.646 157.633V147.131Z" fill="#ABC8F7"/>
<path opacity="0.5" d="M186.095 152.825H188.687V157.586C188.687 158.286 188.12 158.854 187.42 158.854H187.362C186.662 158.854 186.095 158.286 186.095 157.586V152.825Z" fill="#ABC8F7"/>
</g>
<g opacity="0.5">
<path opacity="0.5" d="M175.719 147.131H179.211V157.633C179.211 158.574 178.447 159.341 177.503 159.341H177.426C176.485 159.341 175.719 158.577 175.719 157.633V147.131Z" fill="#ABC8F7"/>
<path opacity="0.5" d="M176.167 152.825H178.76V157.586C178.76 158.286 178.192 158.854 177.492 158.854H177.434C176.734 158.854 176.167 158.286 176.167 157.586V152.825Z" fill="#ABC8F7"/>
</g>
<g opacity="0.5">
<path opacity="0.5" d="M176.967 157.313H175.984V160.102H176.967V157.313Z" fill="#ABC8F7"/>
<path opacity="0.5" d="M193.753 157.313H192.771V160.102H193.753V157.313Z" fill="#ABC8F7"/>
<path opacity="0.5" d="M193.756 157.313H175.984V158.126H193.756V157.313Z" fill="#ABC8F7"/>
</g>
</g>
<g opacity="0.5">
<g opacity="0.5">
<path opacity="0.5" d="M207.853 147.131H211.345V157.633C211.345 158.574 210.581 159.341 209.638 159.341H209.56C208.62 159.341 207.853 158.577 207.853 157.633V147.131Z" fill="#ABC8F7"/>
<path opacity="0.5" d="M208.301 153.865H210.894V157.586C210.894 158.286 210.327 158.854 209.627 158.854H209.569C208.869 158.854 208.301 158.286 208.301 157.586V153.865Z" fill="#ABC8F7"/>
</g>
<g opacity="0.5">
<path opacity="0.5" d="M213.066 147.131H216.558V157.633C216.558 158.574 215.794 159.341 214.85 159.341H214.773C213.829 159.341 213.066 158.577 213.066 157.633V147.131Z" fill="#ABC8F7"/>
<path opacity="0.5" d="M213.514 152.825H216.109V157.586C216.109 158.286 215.542 158.854 214.842 158.854H214.784C214.084 158.854 213.517 158.286 213.517 157.586V152.825H213.514Z" fill="#ABC8F7"/>
</g>
<g opacity="0.5">
<path opacity="0.5" d="M203.138 147.131H206.63V157.633C206.63 158.574 205.866 159.341 204.923 159.341H204.845C203.905 159.341 203.138 158.577 203.138 157.633V147.131Z" fill="#ABC8F7"/>
<path opacity="0.5" d="M203.587 152.825H206.182V157.586C206.182 158.286 205.615 158.854 204.915 158.854H204.857C204.157 158.854 203.589 158.286 203.589 157.586V152.825H203.587Z" fill="#ABC8F7"/>
</g>
<g opacity="0.5">
<path opacity="0.5" d="M204.383 157.313H203.401V160.102H204.383V157.313Z" fill="#ABC8F7"/>
<path opacity="0.5" d="M221.173 157.313H220.191V160.102H221.173V157.313Z" fill="#ABC8F7"/>
<path opacity="0.5" d="M221.173 157.313H203.401V158.126H221.173V157.313Z" fill="#ABC8F7"/>
</g>
</g>
<g opacity="0.5">
<g opacity="0.5">
<path opacity="0.5" d="M206.594 103.079H210.086V113.582C210.086 114.526 209.322 115.289 208.379 115.289H208.301C207.361 115.289 206.594 114.526 206.594 113.582V103.079Z" fill="#ABC8F7"/>
<path opacity="0.5" d="M207.042 109.817H209.635V113.538C209.635 114.238 209.068 114.805 208.368 114.805H208.31C207.61 114.805 207.042 114.238 207.042 113.538V109.817Z" fill="#ABC8F7"/>
</g>
<g opacity="0.5">
<path opacity="0.5" d="M211.807 103.079H215.299V113.582C215.299 114.523 214.535 115.289 213.592 115.289H213.514C212.573 115.289 211.807 114.526 211.807 113.582V103.079Z" fill="#ABC8F7"/>
<path opacity="0.5" d="M212.255 108.776H214.848V113.538C214.848 114.238 214.28 114.805 213.58 114.805H213.522C212.822 114.805 212.255 114.238 212.255 113.538V108.776Z" fill="#ABC8F7"/>
</g>
<g opacity="0.5">
<path opacity="0.5" d="M201.879 103.079H205.371V113.582C205.371 114.526 204.608 115.289 203.664 115.289H203.587C202.646 115.289 201.879 114.526 201.879 113.582V103.079Z" fill="#ABC8F7"/>
<path opacity="0.5" d="M202.328 108.776H204.923V113.538C204.923 114.238 204.356 114.805 203.656 114.805H203.598C202.898 114.805 202.33 114.238 202.33 113.538V108.776H202.328Z" fill="#ABC8F7"/>
</g>
<g opacity="0.5">
<path opacity="0.5" d="M203.125 113.261H202.142V116.05H203.125V113.261Z" fill="#ABC8F7"/>
<path opacity="0.5" d="M219.914 113.261H218.932V116.05H219.914V113.261Z" fill="#ABC8F7"/>
<path opacity="0.5" d="M219.914 113.261H202.142V114.075H219.914V113.261Z" fill="#ABC8F7"/>
</g>
</g>
<g opacity="0.5">
<g opacity="0.5">
<path opacity="0.5" d="M252.045 103.079H255.537V113.582C255.537 114.523 254.773 115.289 253.83 115.289H253.753C252.812 115.289 252.045 114.526 252.045 113.582V103.079Z" fill="#ABC8F7"/>
<path opacity="0.5" d="M252.494 109.817H255.086V113.538C255.086 114.238 254.519 114.805 253.819 114.805H253.761C253.061 114.805 252.494 114.238 252.494 113.538V109.817Z" fill="#ABC8F7"/>
</g>
<g opacity="0.5">
<path opacity="0.5" d="M257.258 103.079H260.75V113.582C260.75 114.523 259.986 115.289 259.043 115.289H258.965C258.025 115.289 257.258 114.526 257.258 113.582V103.079Z" fill="#ABC8F7"/>
<path opacity="0.5" d="M257.706 108.776H260.302V113.538C260.302 114.238 259.734 114.805 259.034 114.805H258.976C258.276 114.805 257.709 114.238 257.709 113.538V108.776H257.706Z" fill="#ABC8F7"/>
</g>
<g opacity="0.5">
<path opacity="0.5" d="M247.331 103.079H250.822V113.582C250.822 114.523 250.059 115.289 249.115 115.289H249.038C248.097 115.289 247.331 114.526 247.331 113.582V103.079Z" fill="#ABC8F7"/>
<path opacity="0.5" d="M247.779 108.776H250.374V113.538C250.374 114.238 249.807 114.805 249.107 114.805H249.049C248.349 114.805 247.782 114.238 247.782 113.538V108.776H247.779Z" fill="#ABC8F7"/>
</g>
<g opacity="0.5">
<path opacity="0.5" d="M248.576 113.261H247.593V116.05H248.576V113.261Z" fill="#ABC8F7"/>
<path opacity="0.5" d="M265.365 113.261H264.383V116.05H265.365V113.261Z" fill="#ABC8F7"/>
<path opacity="0.5" d="M265.365 113.261H247.593V114.075H265.365V113.261Z" fill="#ABC8F7"/>
</g>
</g>
<g opacity="0.5">
<g opacity="0.5">
<path opacity="0.5" d="M231.374 147.131H234.866V157.633C234.866 158.577 234.102 159.341 233.159 159.341H233.081C232.141 159.341 231.374 158.577 231.374 157.633V147.131Z" fill="#ABC8F7"/>
<path opacity="0.5" d="M231.822 153.865H234.418V157.586C234.418 158.286 233.85 158.854 233.15 158.854H233.092C232.392 158.854 231.825 158.286 231.825 157.586V153.865H231.822Z" fill="#ABC8F7"/>
</g>
<g opacity="0.5">
<path opacity="0.5" d="M236.587 147.131H240.079V157.633C240.079 158.574 239.315 159.341 238.372 159.341H238.294C237.353 159.341 236.587 158.577 236.587 157.633V147.131Z" fill="#ABC8F7"/>
<path opacity="0.5" d="M237.035 152.825H239.628V157.586C239.628 158.286 239.06 158.854 238.36 158.854H238.302C237.602 158.854 237.035 158.286 237.035 157.586V152.825Z" fill="#ABC8F7"/>
</g>
<g opacity="0.5">
<path opacity="0.5" d="M226.659 147.131H230.151V157.633C230.151 158.574 229.388 159.341 228.444 159.341H228.367C227.423 159.341 226.659 158.577 226.659 157.633V147.131Z" fill="#ABC8F7"/>
<path opacity="0.5" d="M227.108 152.825H229.7V157.586C229.7 158.286 229.133 158.854 228.433 158.854H228.375C227.675 158.854 227.108 158.286 227.108 157.586V152.825Z" fill="#ABC8F7"/>
</g>
<g opacity="0.5">
<path opacity="0.5" d="M227.905 157.313H226.922V160.102H227.905V157.313Z" fill="#ABC8F7"/>
<path opacity="0.5" d="M244.694 157.313H243.712V160.102H244.694V157.313Z" fill="#ABC8F7"/>
<path opacity="0.5" d="M244.694 157.313H226.922V158.126H244.694V157.313Z" fill="#ABC8F7"/>
</g>
</g>
<g opacity="0.5">
<g opacity="0.5">
<path opacity="0.5" d="M258.022 147.131H261.514V157.633C261.514 158.574 260.75 159.341 259.806 159.341H259.729C258.788 159.341 258.022 158.577 258.022 157.633V147.131Z" fill="#ABC8F7"/>
<path opacity="0.5" d="M258.47 153.865H261.065V157.586C261.065 158.286 260.498 158.854 259.798 158.854H259.74C259.04 158.854 258.473 158.286 258.473 157.586V153.865H258.47Z" fill="#ABC8F7"/>
</g>
<g opacity="0.5">
<path opacity="0.5" d="M263.232 147.131H266.724V157.633C266.724 158.574 265.96 159.341 265.016 159.341H264.939C263.995 159.341 263.232 158.577 263.232 157.633V147.131Z" fill="#ABC8F7"/>
<path opacity="0.5" d="M263.68 152.825H266.273V157.586C266.273 158.286 265.705 158.854 265.005 158.854H264.947C264.247 158.854 263.68 158.286 263.68 157.586V152.825Z" fill="#ABC8F7"/>
</g>
<g opacity="0.5">
<path opacity="0.5" d="M253.304 147.131H256.796V157.633C256.796 158.574 256.032 159.341 255.089 159.341H255.011C254.068 159.341 253.304 158.577 253.304 157.633V147.131Z" fill="#ABC8F7"/>
<path opacity="0.5" d="M253.753 152.825H256.345V157.586C256.345 158.286 255.778 158.854 255.078 158.854H255.02C254.32 158.854 253.753 158.286 253.753 157.586V152.825Z" fill="#ABC8F7"/>
</g>
<g opacity="0.5">
<path opacity="0.5" d="M254.552 157.313H253.57V160.102H254.552V157.313Z" fill="#ABC8F7"/>
<path opacity="0.5" d="M271.339 157.313H270.356V160.102H271.339V157.313Z" fill="#ABC8F7"/>
<path opacity="0.5" d="M271.341 157.313H253.57V158.126H271.341V157.313Z" fill="#ABC8F7"/>
</g>
</g>
<path opacity="0.5" d="M247.416 184.624H228.403V198.489H247.416V184.624Z" fill="#ABC8F7"/>
<path opacity="0.5" d="M267.603 178.41H251.556V198.486H267.603V178.41Z" fill="#ABC8F7"/>
<path opacity="0.5" d="M207.042 116.05H197.754V121.958H207.042V116.05Z" fill="white"/>
<path opacity="0.5" d="M252.729 116.05H243.44V121.958H252.729V116.05Z" fill="white"/>
<path opacity="0.5" d="M224.557 159.775H215.268V165.682H224.557V159.775Z" fill="white"/>
<path opacity="0.5" d="M274.117 198.691H264.828V204.598H274.117V198.691Z" fill="white"/>
</g>
<path d="M516.026 129.835C516.042 129.376 516.399 124.417 523.95 124.16C523.95 124.16 520.237 124.603 519.595 126.235C519.595 126.235 522.124 124.218 524.183 124.868C526.241 125.516 527.45 129.124 527.461 130.311C527.472 131.498 526.33 135.322 525.024 135.645C524.528 135.77 523.958 135.737 523.441 135.645C523.79 136.188 524.13 136.788 524.456 137.455C527.47 143.639 524.362 149.684 521.811 149.015C520.176 148.586 519.714 151.378 519.714 151.378L503.821 138.512C503.821 138.512 509.659 126.434 516.029 129.832L516.026 129.835Z" fill="#2C3A64"/>
<path d="M472.716 207.16C474.044 208.336 477.569 204.299 478.056 203.763C478.081 203.713 478.106 203.685 478.106 203.685L477.032 200.697C477.032 200.697 472.409 200.517 471.643 201.283C470.876 202.05 471.261 205.907 472.716 207.16Z" fill="#FFB27D"/>
<path d="M477.032 200.697L477.492 203.787C477.492 203.787 477.697 203.787 478.053 203.76C479.177 203.682 481.91 203.53 485.001 203.198C487.951 202.908 491.251 202.47 493.827 201.845C495.313 201.485 496.561 201.059 497.363 200.567C500.708 198.522 506.201 192.264 509.778 186.005C509.883 185.853 509.958 185.698 510.036 185.546C511.239 183.401 512.21 181.268 512.772 179.317C513.082 178.247 513.267 177.234 513.303 176.301C513.381 174.694 513.201 173.311 512.869 172.11C512.437 170.527 511.721 169.276 510.979 168.33C510.877 168.178 510.777 168.023 510.622 167.899C509.394 166.44 508.193 165.829 508.193 165.829C507.703 165.627 507.183 165.779 506.646 166.225C506.585 166.272 506.527 166.327 506.466 166.38C506.466 166.38 506.461 166.385 506.458 166.388C506.381 166.46 506.306 166.537 506.228 166.62V166.645C506.029 166.853 505.827 167.099 505.62 167.378L505.614 167.384C505.232 167.899 504.842 168.527 504.466 169.252C504.441 169.276 504.413 169.301 504.413 169.329C504.286 169.559 504.159 169.813 504.007 170.095C503.954 170.145 503.929 170.223 503.904 170.273C503.622 170.859 503.34 171.473 503.06 172.11C499.92 178.958 496.575 189.328 493.789 192.418C493.138 193.138 491.235 194.228 488.933 195.385C488.888 195.407 488.844 195.429 488.8 195.451C488.794 195.451 488.792 195.456 488.786 195.456C486.866 196.419 484.683 197.421 482.727 198.29C479.586 199.668 477.03 200.691 477.03 200.691L477.032 200.697Z" fill="#FFB27D"/>
<path d="M488.825 195.501C488.974 195.841 489.644 197.443 490.728 199.073C491.608 200.395 492.762 201.734 494.132 202.423C495.18 201.917 497.073 201.17 497.875 200.678C500.778 198.904 504.917 193.877 508.295 188.49C508.81 187.668 509.308 186.838 509.781 186.008C509.886 185.855 509.961 185.701 510.038 185.548C511.242 183.404 512.213 181.271 512.775 179.32L506.649 166.225L506.632 166.194C506.61 166.216 506.552 166.283 506.469 166.382C506.469 166.382 506.464 166.388 506.461 166.391C506.289 166.59 505.999 166.933 505.622 167.378L505.617 167.384C505.235 167.899 504.845 168.527 504.469 169.252C504.444 169.276 504.416 169.301 504.416 169.329C504.289 169.559 504.162 169.813 504.009 170.095C503.957 170.145 503.932 170.223 503.907 170.273C503.625 170.859 503.343 171.473 503.063 172.11C499.923 178.958 496.578 189.328 493.791 192.418C493.141 193.138 491.238 194.228 488.936 195.385C488.886 195.462 488.847 195.501 488.822 195.501H488.825Z" fill="#AFCDFB"/>
<path d="M490.728 199.073C491.608 200.395 492.762 201.734 494.132 202.423C495.18 201.917 497.073 201.17 497.875 200.678C500.778 198.904 504.917 193.877 508.295 188.49C508.168 186.796 499.3 195.495 498.174 197.072C497.325 198.262 492.936 198.851 490.728 199.073Z" fill="#95B3EF"/>
<path d="M473.14 189.663C473.159 190.028 473.17 190.222 473.17 190.222C473.17 190.222 473.231 190.036 473.347 189.679C474.302 186.735 478.967 172.209 483.211 156.034C489.082 133.653 494.148 108.123 487.48 105.763C474.849 101.289 472.52 137.045 472.487 163.43C472.464 176.429 473.004 187.15 473.14 189.665V189.663Z" fill="#A8D29F"/>
<path d="M460.78 160.605C465.342 170.729 469.305 179.248 471.576 184.35C472.567 186.575 473.234 188.146 473.491 188.924C473.27 187.662 472.675 184.281 471.822 179.47V179.464C470.547 172.254 468.693 161.839 466.66 150.528C461.726 123.039 455.719 90.2881 454.317 85.6066C451.843 77.3475 440.441 59.7642 432.768 75.0621C427.782 85.0034 447.02 130.089 460.777 160.605H460.78Z" fill="#A8D29F"/>
<path d="M459.861 175.048C464.579 180.026 468.544 184.063 470.757 186.295C471.966 187.518 472.655 188.199 472.655 188.199C472.655 188.199 471.449 185.623 469.39 181.512C467.445 177.627 464.745 172.37 461.588 166.617C451.243 147.767 436.011 123.607 426.568 125.001C415.791 126.592 442.762 157 459.861 175.045V175.048Z" fill="#A8D29F"/>
<path d="M473.14 189.663C473.206 189.665 473.275 189.671 473.347 189.679C474.302 186.735 478.967 172.209 483.211 156.034C481.233 159 477.652 162.976 472.487 163.43C472.464 176.429 473.004 187.15 473.14 189.665V189.663Z" fill="#82B378"/>
<path d="M460.78 160.605C465.343 170.729 469.305 179.248 471.576 184.35C471.751 182.925 471.825 181.274 471.825 179.47V179.464C470.55 172.254 468.696 161.839 466.662 150.528C465.868 154.477 464.214 158.851 460.78 160.605Z" fill="#82B378"/>
<path d="M459.861 175.048C464.579 180.026 468.544 184.063 470.757 186.295C470.544 185.014 470.046 183.349 469.39 181.512C467.445 177.627 464.745 172.37 461.588 166.617C461.516 169.027 461.173 172.622 459.861 175.048Z" fill="#82B378"/>
<path d="M473.496 188.927C473.56 189.281 473.591 189.466 473.591 189.466C473.638 189.441 473.607 189.259 473.496 188.927Z" fill="#A8D29F"/>
<path d="M467.163 225.275C473.452 243.091 491.525 281.251 498.683 296.173C500.299 299.54 504.388 300.885 507.689 299.139C510.166 297.83 511.544 295.102 511.12 292.333C509.211 279.846 503.863 245.373 500.758 230.388C496.295 208.845 493.75 187.109 484.597 181.456C482.076 179.901 479.357 179.179 476.698 178.983C475.356 178.883 474.019 178.927 472.713 179.099C472.401 179.14 472.096 179.187 471.787 179.24C471.015 179.378 470.254 179.558 469.515 179.779C469.224 179.862 468.937 179.954 468.654 180.053C467.667 180.388 466.718 180.792 465.807 181.251C461.953 183.21 458.849 186.16 457.634 189.347C453.979 198.926 461.181 208.339 467.163 225.278V225.275Z" fill="#ED7D2B"/>
<path d="M510.495 312.024L513.87 313.28C513.87 313.28 528.532 292.947 530.336 275.053C530.66 271.86 530.552 268.764 529.855 265.906C529.855 265.906 529.998 265.087 530.248 263.64C530.364 262.965 530.508 262.152 530.668 261.219C531.144 258.488 531.8 254.75 532.55 250.495C534.273 240.703 536.509 228.186 538.246 218.983L537.336 218.69L527.494 215.516L525.461 209.056L518.134 207.127C518.134 207.127 516.496 210.328 515.033 225.458C514.761 227.441 514.518 229.63 514.333 232.004C513.763 239.245 513.721 248.232 515.03 258.502C515.367 261.131 515.791 263.845 516.316 266.634C516.701 268.679 516.759 271.465 516.599 274.663C515.86 289.289 510.492 312.019 510.492 312.019L510.495 312.024Z" fill="#B5453C"/>
<path d="M514.335 232.009L530.247 263.643C530.364 262.968 530.508 262.154 530.668 261.222C531.144 258.491 531.8 254.753 532.549 250.498C534.273 240.706 536.509 228.188 538.246 218.986L537.336 218.693L527.494 215.519L525.461 209.058L518.134 207.13C518.134 207.13 516.496 210.331 515.033 225.46C514.761 227.444 514.518 229.633 514.332 232.007L514.335 232.009Z" fill="#93312C"/>
<path d="M521.335 211.194L521.703 208.035C527.874 209.673 544.364 203.455 544.364 203.455C544.364 203.455 550.343 208.71 549.557 221.307C549.176 227.455 548.476 253.585 547.742 261.316C547.477 264.119 547.247 266.111 547.153 266.908C547.153 266.911 547.153 266.913 547.153 266.916C547.125 267.16 547.208 267.389 547.333 267.6C548.409 269.426 549.3 271.327 550.031 273.274C557.205 292.393 548.927 315.937 548.927 315.937L546.779 315.071C546.779 315.071 542.068 288.868 538.241 277.295C537.591 275.33 536.968 273.789 536.398 272.868C534.735 270.181 533.189 265.793 531.786 260.572C529.135 250.702 527.002 237.861 525.583 227.95C525.386 227.959 521.338 211.197 521.338 211.197L521.335 211.194Z" fill="#B5453C"/>
<path d="M516.654 174.545C527.265 175.126 524.932 159.31 524.285 159.39C522.987 158.713 520.655 155.42 519.307 149.911L518.851 150.124L511.195 153.724C511.195 153.724 512.008 156.214 512.609 158.599C513.076 160.464 513.414 162.268 513.132 162.772C512.529 163.018 512.166 163.17 512.166 163.17C512.166 163.17 512.166 163.173 512.166 163.178C512.089 163.375 513.826 174.392 516.654 174.547V174.545Z" fill="#FFB27D"/>
<path d="M511.195 153.721C511.195 153.721 512.008 156.211 512.609 158.596C517.083 157.348 518.441 152.645 518.851 150.121L511.195 153.721Z" fill="#ED985F"/>
<path d="M510.251 156.358C510.251 156.358 520.959 153.879 519.313 147.236C517.667 140.592 517.94 135.797 511.034 137.098C504.128 138.398 503.434 141.262 503.445 143.614C503.456 145.966 507.424 156.831 510.251 156.358Z" fill="#FFB27D"/>
<path d="M502.842 139.843C503.993 137.435 505.349 137.563 506.195 137.989C511.225 133.335 516.159 137.137 516.159 137.137C518.059 141.724 522.174 143.6 522.174 143.6C522.174 143.6 520.53 145.285 515.763 145.246C514.308 145.235 512.844 144.566 511.51 143.644C514.081 146.231 517.094 147.808 517.094 147.808C511.126 146.666 507.125 139.757 506.715 139.024C506.209 139.771 505.243 141.359 505.16 142.701C505.05 144.524 505.678 148.066 504.632 148.199C504.632 148.199 501.115 143.451 502.842 139.84V139.843Z" fill="#2C3A64"/>
<path d="M536.434 317.694H553.437C553.437 317.694 553.843 315.101 552.955 313.137C552.103 311.25 550.772 310.392 551.09 308.112C550.011 309.224 548.249 310.469 545.792 310.14C545.49 310.627 543.847 313.242 542.842 313.964C541.73 314.763 536.777 314.478 536.434 317.696V317.694Z" fill="#233862"/>
<path d="M499.931 317.693H516.933C516.933 317.693 517.57 314.982 516.452 313.136C515.464 311.504 515.843 310.574 516.574 309.224C515.804 309.54 514.808 309.827 513.71 309.764C512.863 309.714 511.967 309.329 511.181 308.876C510.451 309.708 507.316 313.261 506.336 313.964C505.224 314.763 500.271 314.478 499.928 317.696L499.931 317.693Z" fill="#233862"/>
<path d="M506.635 166.191L509.421 203.63L511.126 226.553C513.749 227.369 516.244 228.006 518.613 228.496C518.768 226.573 519.39 224.276 519.39 224.276C519.363 225.482 520.774 227.79 521.609 229.043C543.382 232.532 553.586 223.034 553.586 223.034C552.739 214.628 549.07 197.623 544.679 183.368C543.764 180.402 542.82 177.558 541.863 174.932C539.685 168.964 538.302 165.848 537.129 163.433C534.896 158.84 524.916 159.13 524.916 159.13C522.993 166.059 517.711 170.378 517.711 170.378C514.894 168.723 512.797 162.91 512.797 162.91L506.632 166.191H506.635Z" fill="#AFCDFB"/>
<path d="M489.162 205.403C490.571 205.398 492.79 205.301 494.074 204.808C494.074 204.808 489.973 204.75 490.845 203.455C491.002 203.22 493.042 203.397 495.316 203.397C496.248 203.397 498.556 204.676 498.437 204.737C500.086 204.518 501.586 204.2 502.07 204.095C502.197 204.07 502.25 204.045 502.25 204.045L503.705 208.286C503.705 208.286 503.398 208.364 502.861 208.466C501.508 208.798 498.722 209.515 496.091 210.536C492.413 211.991 489.705 210.182 488.479 208.901C487.701 208.09 487.087 207.011 487.129 206.231C487.176 205.376 488.305 205.414 489.162 205.409V205.403Z" fill="#FFB27D"/>
<path d="M522.716 157.852C522.716 157.852 524.528 157.974 524.916 159.133C524.916 159.133 522.553 168.648 517.714 170.38L522.716 157.855V157.852Z" fill="#95B3EF"/>
<path d="M517.714 170.378C517.714 170.378 513.198 162.866 513.215 161.737C513.215 161.737 511.35 162.462 511.463 163.621C511.463 163.621 515.359 169.86 517.711 170.38L517.714 170.378Z" fill="#95B3EF"/>
<path d="M530.109 166.994C529.979 167.445 513.68 193.467 513.323 198.649C512.966 203.832 520.176 200.902 520.29 200.227C520.403 199.551 530.109 166.994 530.109 166.994Z" fill="#95B3EF"/>
<path d="M509.421 203.63L511.126 226.553C534.442 219.838 535.723 170.635 535.723 170.635L521.313 196.652L509.546 203.453C509.546 203.453 509.502 203.514 509.419 203.63H509.421Z" fill="#95B3EF"/>
<path d="M499.051 205.73L499.945 209C499.945 209 501.068 208.795 502.858 208.463C503.395 208.358 503.699 208.284 503.699 208.284C505.13 208.004 506.84 207.622 508.705 207.21H508.732C511.925 206.444 515.5 205.525 518.516 204.501C518.787 204.407 519.053 204.313 519.31 204.216C521.092 203.558 522.633 202.866 523.726 202.174C523.853 202.097 523.956 202.022 524.083 201.92C527.071 199.748 530.621 193.362 533.382 186.517C533.764 185.573 534.124 184.627 534.481 183.708C535.759 180.286 536.78 176.913 537.394 173.999C537.776 172.262 538.031 170.679 538.083 169.376C538.108 168.917 538.136 168.482 538.108 168.073C538.058 160.666 532.821 159.9 532.132 160.741C531.263 161.789 530.344 163.499 529.398 165.569C527.943 168.864 526.41 173.131 524.979 177.37C524.185 179.694 523.422 182.021 522.655 184.165C522.221 185.468 521.786 186.694 521.377 187.817C520.583 189.964 519.869 191.702 519.233 192.798C518.823 193.514 517.65 194.51 516.089 195.634C515.677 195.932 515.235 196.242 514.77 196.56C512.185 198.315 508.896 200.271 505.974 201.917C504.543 202.736 503.19 203.478 502.064 204.089C500.249 205.085 499.048 205.724 499.048 205.724L499.051 205.73Z" fill="#FFB27D"/>
<path d="M514.772 196.566C514.772 196.566 514.584 202.744 520.367 205.746C527.052 203.334 530.627 193.365 533.388 186.52C533.77 185.576 534.129 184.63 534.486 183.711C535.765 180.289 536.786 176.916 537.4 174.002C537.782 172.265 538.036 170.682 538.089 169.379C538.114 168.92 538.141 168.485 538.114 168.076C538.064 160.669 532.826 159.902 532.137 160.743C531.268 161.792 530.35 163.502 529.404 165.572C527.948 168.867 526.415 173.133 524.985 177.372C524.191 179.696 523.427 182.023 522.661 184.168C522.226 185.471 521.792 186.697 521.382 187.82C520.588 189.967 519.875 191.705 519.238 192.8C518.829 193.517 517.656 194.513 516.095 195.636C515.683 195.935 515.24 196.245 514.775 196.563L514.772 196.566Z" fill="#AFCDFB"/>
<path d="M488.789 195.46C488.795 195.488 488.809 195.502 488.822 195.502C488.814 195.482 488.806 195.465 488.803 195.454C488.783 195.412 488.778 195.412 488.789 195.46Z" fill="#ABDDDA"/>
<path d="M368.912 262.215C373.701 263.314 378.828 263.895 384.193 263.889C404.524 263.87 428.137 255.434 448.775 234.679C448.775 234.679 449.292 217.713 443.064 202.921H443.055C438.734 192.662 430.19 179.71 417.172 176.683C408.782 174.735 402.147 176.44 396.603 179.362C387.168 184.314 380.873 192.773 374.443 192.742C368.101 192.712 360.838 194.449 354.278 197.797C353.205 198.342 352.15 198.929 351.124 199.568H351.121C350.692 199.831 350.272 200.096 349.854 200.373C349.843 200.376 349.834 200.384 349.826 200.393C340.64 206.488 333.867 216.081 334.921 228.592C335.165 231.492 335.856 234.605 337.115 237.928C341.578 249.784 353.467 258.676 368.912 262.212V262.215Z" fill="#ED7D2B"/>
<path d="M409.369 182.029C409.369 182.029 421.568 180.643 425.353 188.691C429.138 196.74 420.984 199.344 415.204 196.884C409.424 194.424 402.872 184.483 409.369 182.029Z" fill="#FFB583"/>
<path d="M334.921 228.592C335.165 231.492 336.166 234.508 337.115 237.933C343.817 262.121 357.983 274.851 369.64 280.607C382.525 286.968 409.292 287.236 420.923 282.983C440.017 276.002 449.444 257.996 448.769 234.677C448.769 234.677 449.286 217.713 443.061 202.919H443.055C443.055 202.919 427.348 238.542 382.077 241.206C361.513 242.416 345.872 235.977 334.921 228.587V228.592Z" fill="#EA6C2D"/>
<path d="M363.497 178.941C365.251 172.209 373.065 171.523 379.988 168.546C386.916 165.569 396.492 156.043 396.492 156.043C396.492 156.043 386.921 154.252 374.858 154.994C362.794 155.735 363.497 178.941 363.497 178.941Z" fill="#A8D29F"/>
<path d="M363.497 178.941C364.255 171.717 369.792 162.539 374.855 160.456C379.919 158.372 396.492 156.043 396.492 156.043C396.492 156.043 386.921 154.252 374.858 154.994C362.794 155.735 363.497 178.941 363.497 178.941Z" fill="#82B378"/>
<path d="M374.44 192.742C368.098 192.712 360.835 194.449 354.275 197.797C365.915 192.598 381.224 198.741 383.217 194.314C385.35 189.56 396.182 179.735 396.597 179.362C387.162 184.314 380.868 192.773 374.437 192.742H374.44Z" fill="#EA6C2D"/>
<path d="M349.851 200.373C350.194 200.185 350.612 199.919 351.118 199.571C350.689 199.831 350.269 200.094 349.851 200.373Z" fill="#95C38B"/>
<path d="M382.406 194.69C379.191 185.983 370.348 179.968 363.497 176.456C358.044 173.662 349.909 170.654 346.002 169.265C345.178 168.972 344.417 169.833 344.807 170.618L345.836 172.699C346.868 174.782 348.755 176.315 351.008 176.885C357.936 178.639 373.267 183.595 379.149 194.322C379.811 195.528 382.984 196.245 382.403 194.69H382.406Z" fill="#82B378"/>
<path d="M412.152 317.638C446.675 314.628 481.136 303.347 514.789 284.051C520.4 280.833 524.119 275.341 525.223 269.238C525.718 266.504 525.688 263.649 525.079 260.818C522.534 254.974 506.928 247.988 490.502 247.211C485.986 247 481.41 247.252 477.019 248.132C442.746 254.997 399.635 258.973 373.762 252.055C347.303 244.983 314.659 234.165 286.028 212.323C286.028 212.323 286.022 212.323 286.017 212.315C283.231 210.218 207.535 165.259 207.535 165.259C197.862 161.704 193.463 172.718 193.463 172.718C193.463 172.718 201.575 176.592 220.619 190.858C239.658 205.124 241.155 243.885 241.161 243.896C240.948 255.027 246.124 265.909 255.617 272.682C270.265 283.136 291.874 296.148 319.02 305.638C349.561 316.316 380.895 320.353 412.152 317.635V317.638Z" fill="#FFB93E"/>
<path d="M477.019 248.135C442.746 254.999 399.635 258.975 373.762 252.058C347.303 244.986 314.659 234.168 286.028 212.326C286.028 212.326 286.022 212.326 286.017 212.318C285.436 211.972 262.687 198.647 258.943 225.845C255.28 252.465 387.262 298.052 490.502 247.211C485.986 247 481.41 247.252 477.019 248.132V248.135Z" fill="#FFA412"/>
<path d="M321.696 170.906C321.696 170.906 322.365 169.398 322.8 168.687C323.234 167.973 325.088 165.884 325.403 166.357C325.719 166.831 326.98 170.015 326.311 170.909C325.641 171.8 326.355 173.352 323.018 174.293L321.696 170.909V170.906Z" fill="#FFB27D"/>
<path d="M284.639 161.391C284.639 161.391 301.71 175.64 308.365 174.32C313.569 173.288 321.557 170.549 321.557 170.549L323.154 174.636C323.154 174.636 315.99 184.353 308.522 184.417C296.849 184.516 288.222 179.362 288.222 179.362L284.636 161.388L284.639 161.391Z" fill="#95B3EF"/>
<path d="M254.702 311.689C254.702 311.689 255.197 319.683 256.743 319.799C256.948 319.813 264.588 319.813 264.588 319.813L274.338 319.758C274.338 319.758 274.274 317.409 271.424 316.91C268.575 316.415 263.805 314.412 262.078 310.644C260.263 306.681 254.702 311.689 254.702 311.689Z" fill="#163560"/>
<path d="M254.14 312.246C254.14 312.246 257.103 313.236 259.419 313.236C262.001 313.236 264.347 312.533 264.347 312.533C264.347 312.533 264.906 307.138 267.977 295.246C269.587 289.012 271.886 280.999 275.157 271.042C284.202 243.522 286.952 227.422 287.204 225.897C287.218 225.817 287.223 225.778 287.223 225.778L287.193 225.765L259.386 213.557C259.386 213.557 262.822 251.488 258.437 266.045C257.823 268.078 257.297 270.449 256.846 273.02C254.076 288.832 254.14 312.248 254.14 312.248V312.246Z" fill="#F99746"/>
<path d="M267.974 295.246C269.584 289.012 271.884 280.999 275.154 271.041C284.199 243.522 286.949 227.422 287.201 225.897C287.201 225.853 287.196 225.809 287.19 225.765L259.383 213.557C259.383 213.557 262.82 251.488 258.434 266.045C257.82 268.078 267.971 295.246 267.971 295.246H267.974Z" fill="#ED7D2B"/>
<path d="M276.419 311.689C276.419 311.689 276.914 319.683 278.461 319.799C278.665 319.813 286.305 319.813 286.305 319.813L296.055 319.758C296.055 319.758 295.991 317.409 293.142 316.91C290.292 316.415 285.522 314.412 283.795 310.644C281.977 306.681 276.419 311.689 276.419 311.689Z" fill="#163560"/>
<path d="M292.184 214.448C292.184 214.448 292.547 239.026 288.294 269.204C284.041 299.382 285.483 312.193 285.483 312.193C285.483 312.193 282.561 313.139 281.382 313.236C278.378 313.48 275.298 312.533 275.298 312.533C275.298 312.533 269.211 282.344 270.957 267.24C272.703 252.136 262.623 215.408 262.623 215.408L292.187 214.451L292.184 214.448Z" fill="#F99746"/>
<path d="M272.468 156.931L277.893 160.489L285.737 159.028C285.629 158.394 285.112 155.771 284.639 153.395C284.611 153.254 284.581 153.115 284.556 152.977C284.152 150.954 283.803 149.217 283.803 149.217L276.479 145.985L273.749 144.781C273.757 144.823 273.962 147.025 273.989 147.346C274.501 153.054 272.47 156.931 272.47 156.931H272.468Z" fill="#FFB27D"/>
<path d="M293.806 215.513C293.695 228.487 292.829 258.837 292.192 259.454C285.436 265.975 255.714 257.666 254.137 250.481C252.563 243.295 260.125 158.345 271.668 154.952C274.061 154.25 286.866 158.389 286.866 158.389C286.866 158.389 288.872 163.643 290.192 170.336C290.679 172.815 292.273 190.509 293.205 202.335C293.451 205.486 293.651 208.22 293.77 210.137C293.817 210.929 293.828 212.86 293.806 215.519V215.513Z" fill="#AFCDFB"/>
<path d="M274.537 147.449C276.145 150.174 282.14 152.529 284.639 153.395C284.611 153.254 284.581 153.115 284.556 152.977C284.152 150.954 283.803 149.217 283.803 149.217L276.479 145.985C274.861 145.963 273.876 146.325 274.537 147.446V147.449Z" fill="#FCA56B"/>
<path d="M286.565 148.771C286.565 148.771 274.767 152.451 272.587 145.069C270.406 137.687 267.418 133.188 274.858 130.527C282.298 127.865 284.6 130.247 285.928 132.535C287.256 134.824 289.578 147.623 286.565 148.771Z" fill="#FFB27D"/>
<path d="M285.463 131.824C285.463 131.824 284.711 140.415 282.935 140.042C281.158 139.668 279.545 139.392 279.805 141.981C280.065 144.571 282.531 147.562 277.052 148.021C271.577 148.481 263.705 134.359 265.21 131.683C269.551 123.969 291.736 122.411 285.463 131.821V131.824Z" fill="#163560"/>
<path d="M283.729 155.138C283.576 155.074 274.944 151.201 273.937 151.535C272.93 151.87 271.668 154.952 271.668 154.952L286.866 158.389C286.866 158.389 285.671 155.957 283.729 155.138Z" fill="#95B3EF"/>
<path d="M340.87 197.255L295.333 245.656C294.439 246.605 292.934 246.652 291.985 245.758L288.966 242.919C288.017 242.025 287.973 240.52 288.864 239.571L334.401 191.171C335.295 190.222 336.8 190.175 337.749 191.068L340.767 193.907C341.716 194.801 341.764 196.306 340.87 197.255Z" fill="#1F4D84"/>
<path d="M315.315 224.417L295.333 245.656C294.439 246.605 292.934 246.652 291.985 245.758L288.966 242.919C288.017 242.025 287.973 240.52 288.864 239.571L308.846 218.333L315.315 224.42V224.417Z" fill="#163560"/>
<path d="M389.201 141.638C389.008 141.445 388.808 141.254 388.606 141.063C373.353 126.711 349.353 127.442 335.001 142.695C325.348 152.955 322.517 167.171 326.344 179.746C328.203 185.869 331.64 191.602 336.637 196.3C351.89 210.652 375.893 209.919 390.244 194.665C404.408 179.611 403.88 156.043 389.201 141.636V141.638ZM386.404 191.057C381.855 195.894 376.18 199.031 370.171 200.453C359.853 202.894 348.545 200.274 340.247 192.463C334.196 186.771 330.801 179.32 330.107 171.653C329.288 162.672 332.176 153.395 338.842 146.309C346.65 138.008 357.773 134.702 368.217 136.514C370.019 136.827 371.798 137.286 373.541 137.903C377.68 139.372 381.59 141.699 384.993 144.9C398.127 157.257 398.755 177.92 386.401 191.057H386.404Z" fill="#163560"/>
<g opacity="0.5">
<path opacity="0.5" d="M386.404 191.057C381.855 195.894 376.18 199.031 370.171 200.456C359.853 202.897 348.548 200.274 340.247 192.465C327.113 180.109 326.482 159.446 338.842 146.309C346.65 138.011 357.773 134.702 368.22 136.511C374.307 137.565 380.162 140.352 384.998 144.9C398.133 157.257 398.764 177.92 386.407 191.054L386.404 191.057Z" fill="#B3CFF9"/>
<path opacity="0.5" d="M386.404 191.057C381.855 195.894 376.18 199.031 370.171 200.456C364.087 199.402 358.232 196.613 353.398 192.064C340.264 179.707 339.633 159.042 351.99 145.908C356.539 141.074 362.211 137.933 368.22 136.511C374.307 137.565 380.162 140.352 384.998 144.9C398.133 157.257 398.764 177.92 386.407 191.054L386.404 191.057Z" fill="#D2E4FF"/>
</g>
<path d="M293.806 215.513C265.606 196.417 267.905 170.151 267.905 170.151C278.909 176.357 289.816 191.052 293.205 202.329C293.451 205.481 293.651 208.214 293.77 210.132C293.817 210.923 293.828 212.854 293.806 215.513Z" fill="#95B3EF"/>
<path d="M318.66 205.846C320.539 205.412 321.803 203.992 322.066 203.743C322.066 203.743 322.869 203.799 321.933 205.508C321.856 205.652 321.682 206.02 321.552 206.28C321.499 206.386 321.574 206.51 321.69 206.518C322.775 206.601 323.865 206.172 325.956 206.607C326.244 206.668 326.33 207.357 326.319 207.653C326.3 208.151 326.336 208.71 325.757 209.473C325.42 209.919 324.482 210.395 322.39 211.239C321.593 211.56 319.313 211.319 317.177 210.583L315.47 209.792L315.999 206.621L316.427 206.712C317.108 206.856 317.952 206.023 318.663 205.849L318.66 205.846Z" fill="#FFB27D"/>
<path d="M276.178 158.386C276.178 158.386 252.222 162.946 283.225 197.637C288.183 203.184 314.972 210.409 314.972 210.409C314.972 210.409 317.689 208.095 316.319 206.225C316.319 206.225 297.876 192.831 293.817 190.7C291.991 189.743 286.731 169.323 283.754 164.404C280.776 159.487 276.175 158.383 276.175 158.383L276.178 158.386Z" fill="#AFCDFB"/>
<path d="M322.346 171.327C322.346 171.327 323.129 169.83 323.284 169.038C323.436 168.25 324.424 165.945 324.83 165.538C324.994 165.375 325.53 165.585 325.594 166.285C325.622 166.59 325.472 167.143 325.209 167.802C324.781 168.872 324.852 170.328 324.703 170.812C324.332 172.018 322.348 171.327 322.348 171.327H322.346Z" fill="#FFB27D"/>
<path d="M776.664 317.694H756.853C755.791 316.794 757.587 314.747 759.465 314.611C760.281 314.55 761.311 314.719 762.489 314.968C762.761 311.346 764.318 295.069 770.187 295.725C776.783 296.458 770.187 302.894 768.322 306.704C766.941 309.526 765.483 313.574 764.816 315.483C765.353 315.599 765.906 315.712 766.474 315.818C767.348 313.134 770.602 304.103 774.738 304.628C779.597 305.245 777.643 308.864 774.202 311.014C771.675 312.594 768.574 314.841 767.099 315.926C768.347 316.13 769.65 316.266 770.973 316.235C774.365 316.155 776.022 317.154 776.664 317.694Z" fill="#82B378"/>
<path d="M233.701 317.694C233.701 317.694 224.269 291.787 217.645 293.995C211.021 296.203 233.701 317.694 233.701 317.694Z" fill="#82B378"/>
<path d="M230.088 317.694C229.285 317.694 214.233 302.072 213.229 306.161C212.225 310.251 230.088 317.694 230.088 317.694Z" fill="#82B378"/>
<path d="M246.144 317.694C246.144 317.694 239.918 311.985 232.035 313.471C224.153 314.957 220.788 316.584 215.835 315.458C210.886 314.332 208.357 317.694 208.357 317.694H246.141H246.144Z" fill="#82B378"/>
<path d="M384.279 84.4113L348.661 84.3864C347.026 84.3864 345.69 83.0473 345.69 81.4121L345.715 47.0338C345.715 45.3986 347.054 44.0622 348.689 44.0622L384.307 44.0871C385.942 44.0871 387.278 45.4263 387.278 47.0615L387.254 81.4397C387.254 83.075 385.914 84.4113 384.279 84.4113Z" fill="#C0D8FB"/>
<path d="M382.738 82.6655L350.205 82.6405C348.711 82.6405 347.491 81.4176 347.491 79.9235L347.513 48.5252C347.513 47.0311 348.736 45.8109 350.23 45.8109L382.763 45.8358C384.257 45.8358 385.477 47.0587 385.477 48.5528L385.455 79.9512C385.455 81.4453 384.232 82.6655 382.738 82.6655Z" fill="#DFEBFD"/>
<path d="M365.634 49.5019C365.634 49.026 366.021 48.6414 366.494 48.6414C366.97 48.6414 367.355 49.0287 367.355 49.5019C367.355 49.9778 366.967 50.3624 366.494 50.3624C366.018 50.3624 365.634 49.975 365.634 49.5019Z" fill="#B7D3F3"/>
<path d="M372.581 50.7248C372.813 50.3098 373.336 50.1604 373.751 50.39C374.166 50.6225 374.316 51.1454 374.086 51.5604C373.854 51.9755 373.331 52.1249 372.916 51.8952C372.501 51.6628 372.351 51.1399 372.581 50.7248Z" fill="#B7D3F3"/>
<path d="M378.53 55.4562C378.928 55.1988 379.462 55.315 379.719 55.7135C379.977 56.1147 379.86 56.6459 379.462 56.9032C379.064 57.1605 378.53 57.0443 378.272 56.6459C378.015 56.2475 378.131 55.7135 378.53 55.4562Z" fill="#B7D3F3"/>
<path d="M381.471 62.7773C381.947 62.7773 382.331 63.1646 382.331 63.6378C382.331 64.1137 381.944 64.4983 381.471 64.4983C380.995 64.4983 380.61 64.1109 380.61 63.6378C380.61 63.1619 380.998 62.7773 381.471 62.7773Z" fill="#B7D3F3"/>
<path d="M379.96 71.2715C380.295 71.6091 380.295 72.1542 379.96 72.4889C379.622 72.8237 379.077 72.8237 378.743 72.4889C378.408 72.1514 378.408 71.6063 378.743 71.2715C379.08 70.9367 379.625 70.9367 379.96 71.2715Z" fill="#B7D3F3"/>
<path d="M374.551 76.6863C374.886 77.0238 374.886 77.5689 374.551 77.9037C374.213 78.2385 373.668 78.2385 373.333 77.9037C372.999 77.5661 372.999 77.0211 373.333 76.6863C373.671 76.3515 374.216 76.3515 374.551 76.6863Z" fill="#B7D3F3"/>
<path d="M365.611 79.4753C365.611 78.9994 365.996 78.6148 366.472 78.6148C366.948 78.6148 367.332 79.0021 367.332 79.4753C367.332 79.9512 366.945 80.3357 366.472 80.3357C365.996 80.3357 365.611 79.9484 365.611 79.4753Z" fill="#B7D3F3"/>
<path d="M360.379 50.7165C360.149 50.3015 359.624 50.1493 359.209 50.3817C358.794 50.6114 358.641 51.1371 358.874 51.5521C359.103 51.9672 359.629 52.1193 360.044 51.8869C360.459 51.6573 360.611 51.1316 360.379 50.7165Z" fill="#B7D3F3"/>
<path d="M354.425 55.4396C354.026 55.1822 353.492 55.2957 353.235 55.6941C352.978 56.0925 353.091 56.6265 353.489 56.8839C353.888 57.1412 354.422 57.0277 354.679 56.6293C354.937 56.2309 354.823 55.6969 354.425 55.4396Z" fill="#B7D3F3"/>
<path d="M351.472 62.7551C350.997 62.7551 350.612 63.1397 350.612 63.6156C350.612 64.0915 350.997 64.4761 351.472 64.4761C351.948 64.4761 352.333 64.0915 352.333 63.6156C352.333 63.1397 351.948 62.7551 351.472 62.7551Z" fill="#B7D3F3"/>
<path d="M352.969 71.2522C352.632 71.587 352.632 72.132 352.969 72.4696C353.304 72.8071 353.849 72.8071 354.187 72.4696C354.524 72.1348 354.524 71.5897 354.187 71.2522C353.852 70.9146 353.307 70.9146 352.969 71.2522Z" fill="#B7D3F3"/>
<path d="M358.373 76.6752C358.035 77.01 358.035 77.5578 358.373 77.8926C358.708 78.2302 359.253 78.2302 359.59 77.8926C359.928 77.5578 359.928 77.0128 359.59 76.6752C359.256 76.3376 358.711 76.3376 358.373 76.6752Z" fill="#B7D3F3"/>
<path d="M366.253 63.6267C366.253 63.1508 366.64 62.7662 367.113 62.7662C367.589 62.7662 367.974 63.1536 367.974 63.6267C367.974 64.1026 367.587 64.4872 367.113 64.4872C366.638 64.4872 366.253 64.0998 366.253 63.6267Z" fill="#B7D3F3"/>
<path d="M367.235 52.8719H367V63.6267H367.235V52.8719Z" fill="#B7D3F3"/>
<path d="M372.506 58.8851L366.8 63.356L367.235 63.9114L372.941 59.4404L372.506 58.8851Z" fill="#B7D3F3"/>
<path d="M172.039 226.874C170.21 226.874 168.727 225.391 168.727 223.562V202.639H175.354V223.562C175.354 225.391 173.871 226.874 172.042 226.874H172.039Z" fill="#CDE3FD"/>
<path d="M172.039 225.914C170.68 225.914 169.576 224.813 169.576 223.452V216.011H174.499V223.452C174.499 224.81 173.397 225.914 172.036 225.914H172.039Z" fill="#F1A34F"/>
<path d="M178.618 202.642H185.245V223.565C185.245 225.394 183.762 226.877 181.933 226.877C180.104 226.877 178.621 225.394 178.621 223.565V202.642H178.618Z" fill="#CDE3FD"/>
<path d="M179.468 213.947H184.39V223.454C184.39 224.813 183.286 225.917 181.928 225.917C180.569 225.917 179.465 224.813 179.465 223.454V213.947H179.468Z" fill="#ABDDDA"/>
<path d="M163.088 226.874C161.259 226.874 159.776 225.391 159.776 223.562V202.639H166.403V223.562C166.403 225.391 164.92 226.874 163.091 226.874H163.088Z" fill="#CDE3FD"/>
<path d="M163.088 225.914C161.73 225.914 160.626 224.813 160.626 223.452V213.945H165.548V223.452C165.548 224.81 164.447 225.914 163.085 225.914H163.088Z" fill="#FFB93E"/>
<path d="M157.51 223.385H155.648V228.919H157.51V223.385Z" fill="#77A4E5"/>
<path d="M189.37 223.385H187.508V228.919H189.37V223.385Z" fill="#77A4E5"/>
<path d="M189.37 223.385H155.648V225.001H189.37V223.385Z" fill="#77A4E5"/>
<path d="M112.167 151.87C112.167 151.87 108.122 149.383 103.822 151.079C99.525 152.775 99.525 162.719 95.004 165.657C90.4829 168.596 86.0255 176.011 88.8754 180.609C91.7253 185.208 97.3226 186.013 99.857 182.876C102.389 179.738 105.532 182.328 104.967 177.895C104.403 173.463 105.709 156.3 109.397 157.135C113.085 157.971 112.167 151.87 112.167 151.87Z" fill="#233862"/>
<path d="M125.384 159.786C125.384 159.786 121.079 150.174 112.164 151.87C103.252 153.566 104.411 169.83 107.898 172.433C111.387 175.037 125.381 159.786 125.381 159.786H125.384Z" fill="#233862"/>
<path d="M111.146 317.658H111.243C112.04 317.641 112.657 316.991 112.582 316.238L107.261 263.101L102.618 263.516L110.258 316.938C110.319 317.356 110.7 317.663 111.146 317.658Z" fill="#77A4E5"/>
<path d="M59.9119 317.658H59.8151C59.0182 317.641 58.4012 316.991 58.4759 316.238L63.7966 263.101L68.4394 263.516L60.8001 316.938C60.7392 317.356 60.3574 317.663 59.9119 317.658Z" fill="#77A4E5"/>
<path d="M61.4973 255.373L52.054 208.732C50.8421 202.418 56.0743 196.643 62.8697 196.798L81.0839 197.213C87.3674 197.357 92.832 201.563 94.5779 207.6L108.396 255.373H61.4973Z" fill="#77A4E5"/>
<path d="M67.2109 255.373L57.7676 208.732C56.5557 202.418 61.7878 196.643 68.5832 196.798L86.7975 197.213C93.081 197.357 98.5428 201.563 100.291 207.6L114.109 255.373H67.2109Z" fill="#77A4E5"/>
<path d="M136.191 263.881H64.1286C62.676 263.881 61.4973 262.702 61.4973 261.25V255.376H136.191C137.644 255.376 138.823 256.554 138.823 258.007V261.25C138.823 262.702 137.644 263.881 136.191 263.881Z" fill="#77A4E5"/>
<path d="M97.9451 263.881H143.886C145.057 263.881 146.006 262.932 146.006 261.761V257.495C146.006 256.324 145.057 255.376 143.886 255.376H97.9451C96.7746 255.376 95.8257 256.324 95.8257 257.495V261.761C95.8257 262.932 96.7746 263.881 97.9451 263.881Z" fill="#77A4E5"/>
<path d="M97.6131 207.454L105.269 226.822C105.269 226.822 112.645 235.512 118.572 232.712L99.8128 196.286L97.6131 207.454Z" fill="#ABDDDA"/>
<path d="M149.625 313.872C149.403 316.014 152.38 316.565 155.833 316.775C159.286 316.982 158.235 317.68 162.958 318.587C167.684 319.495 169.593 318.219 169.944 317.586C170.254 317.021 168.063 316.111 165.73 315.082C165.437 314.954 165.141 314.822 164.848 314.689C162.219 313.499 160.764 311.117 158.73 308.9C156.802 306.8 155.023 300.124 155.023 300.124L148.604 298.682C148.604 298.682 150.347 304.692 150.944 307.257C151.296 308.765 150.734 310.442 150.239 311.717C149.97 312.412 149.699 313.12 149.625 313.875V313.872Z" fill="#FFB27D"/>
<path d="M155.363 317.243C158.816 317.45 158.232 317.68 162.958 318.59C167.684 319.497 169.593 318.222 169.944 317.588C170.254 317.024 168.063 316.114 165.73 315.084L165.694 315.123C165.694 315.123 162.355 316.219 158.523 315.131C155.399 314.246 152.391 312.342 150.242 311.714C149.973 312.409 149.702 313.117 149.627 313.872C149.406 316.014 151.916 317.032 155.366 317.243H155.363Z" fill="#0F2549"/>
<path d="M139.899 239.51C136.446 237.087 114.037 226.445 102.38 225.195L89.0552 220.325C89.0552 220.325 78.0874 236.572 77.9989 249.001C77.9574 254.797 80.6274 255.373 80.6274 255.373C80.6274 255.373 121.937 255.68 123.749 255.865C126.712 256.17 130.622 263.554 131.598 270.281C132.575 277.007 149.802 304.36 149.802 304.36C149.802 304.36 153.393 305.511 155.056 305.414C156.843 305.309 157.671 304.711 157.671 304.711C157.671 304.711 147.688 244.983 139.899 239.513V239.51Z" fill="#ED7D2B"/>
<path d="M138.939 313.872C138.718 316.014 141.695 316.565 145.148 316.775C148.601 316.982 147.549 317.68 152.272 318.587C156.998 319.495 158.907 318.219 159.259 317.586C159.569 317.021 157.377 316.111 155.045 315.082C154.752 314.954 154.455 314.822 154.162 314.689C151.534 313.499 150.078 311.117 148.045 308.9C146.116 306.8 144.337 300.124 144.337 300.124L137.918 298.682C137.918 298.682 139.661 304.692 140.259 307.257C140.61 308.765 140.048 310.442 139.553 311.717C139.285 312.412 139.014 313.12 138.939 313.875V313.872Z" fill="#FFB27D"/>
<path d="M145.148 316.775C148.601 316.982 147.549 317.68 152.272 318.587C156.998 319.495 159.101 318.275 159.45 317.638C159.76 317.074 157.864 316.033 155.042 315.082L155.006 315.12C155.006 315.12 151.666 316.216 147.834 315.129C144.711 314.243 141.703 312.34 139.553 311.712C139.285 312.406 139.014 313.114 138.939 313.87C138.718 316.011 141.695 316.562 145.148 316.772V316.775Z" fill="#233862"/>
<path d="M129.119 239.51C126.12 237.405 121.084 236.24 110.111 232.665C107.469 231.805 81.7756 219.072 81.7756 219.072C81.7756 219.072 73.4197 233.706 73.3312 246.134C73.3312 246.314 73.3312 246.494 73.3422 246.671C73.5553 251.566 77.7166 255.367 82.614 255.417C91.7944 255.508 111.58 255.721 112.969 255.865C115.933 256.17 119.842 263.554 120.819 270.281C121.795 277.007 139.022 304.36 139.022 304.36C139.022 304.36 142.613 305.511 144.276 305.414C146.064 305.309 146.891 304.711 146.891 304.711C146.891 304.711 136.908 244.983 129.119 239.513V239.51Z" fill="#F99746"/>
<path d="M112.914 187.9C112.947 187.933 108.326 188.393 105.762 186.456C103.349 184.635 102.347 179.732 102.389 179.738C103.626 179.968 105.222 179.212 107.9 172.433L108.379 172.743L116.406 177.951C116.406 177.951 115.111 180.615 114.073 183.196C113.202 185.363 112.51 187.474 112.914 187.903V187.9Z" fill="#FFB27D"/>
<path d="M116.403 177.948C116.403 177.948 116.209 178.521 115 180.997C110.46 178.056 108.83 175.662 107.928 173.252L116.403 177.948Z" fill="#ED975D"/>
<path d="M118.157 178.936C118.157 178.936 105.903 176.874 107.303 169.263C108.703 161.651 108.064 156.258 115.949 157.252C123.832 158.245 124.814 161.43 124.964 164.083C125.113 166.736 121.38 179.273 118.157 178.936Z" fill="#FFB27D"/>
<path d="M124.654 159.875C124.654 159.875 116.55 166.404 111.171 166.775C105.792 167.146 103.819 165.359 103.819 165.359C103.819 165.359 107.065 162.841 109.107 158.671C109.707 157.443 110.922 156.624 112.289 156.552C116.126 156.347 123.386 156.438 124.654 159.877V159.875Z" fill="#233862"/>
<path d="M119.748 159.105C119.748 159.105 122.299 161.742 123.068 163.66C123.81 165.511 123.904 169.882 123.209 171.595C123.209 171.595 127.581 163.745 125.384 159.786C123.054 155.589 119.748 159.105 119.748 159.105Z" fill="#233862"/>
<path d="M117.922 207.752C110.949 231.691 121.66 227.4 118.401 228.958C117.615 229.331 112.568 235.969 98.7309 235.604C91.0723 235.402 80.8155 231.904 80.6965 230.405C80.2926 225.222 85.2425 213.887 85.8097 206.28C85.8733 205.472 85.9176 204.593 85.9536 203.627C86.1334 198.345 85.4472 196.342 91.8332 189.535C97.6214 183.371 103.709 178.742 104.007 179.052C112.408 187.773 114.126 182.873 114.126 182.873C114.126 182.873 121.322 196.073 117.922 207.752Z" fill="#F9DDBF"/>
<path d="M114.126 182.873C114.126 182.873 123.92 187.441 123.909 192.222C123.898 197.003 127.39 233.268 127.39 233.268C127.39 233.268 113.752 230.789 111.995 227.696C110.236 224.603 114.325 196.69 114.325 196.69L114.126 182.873Z" fill="#AFCDFB"/>
<path d="M114.806 181.442L114.129 182.876C114.192 187.211 112.753 200.163 112.571 210.439L118.071 197.166L116.976 195.622L118.041 193.824L115.827 183.758L114.806 181.442Z" fill="#95B3EF"/>
<path d="M103.747 209.581L103.531 215.829L103.462 217.921L102.037 259.625C84.7279 260.566 69.7509 257.066 69.7509 257.066C69.7509 257.066 77.1909 222.757 77.9989 218.731C79.0613 213.444 83.7512 191.558 83.7512 191.558L86.0034 201.549L95.8755 185.919L101.157 184.422L103.747 209.581Z" fill="#AFCDFB"/>
<path d="M136.519 208.663L143.734 205.339L131.659 179.134L124.444 182.458L136.519 208.663Z" fill="#233862"/>
<path d="M130.586 190.071L134.034 188.483L128.266 175.96L124.818 177.548L130.586 190.071Z" fill="#233862"/>
<path d="M111.176 224.744L117.479 223.77C117.463 223.654 115.714 211.872 118.771 202.672C121.84 193.437 132.29 191.738 132.395 191.721L131.43 185.416C130.843 185.507 117.006 187.762 112.72 200.661C109.168 211.347 111.093 224.201 111.176 224.744Z" fill="#233862"/>
<path d="M128.574 229.359H101.307V228.971C101.307 225.181 104.384 222.104 108.174 222.104H122.863C126.015 222.104 128.574 224.663 128.574 227.815V229.359Z" fill="#233862"/>
<path d="M114.936 215.931H144.445V213.806H114.936V215.931Z" fill="#233862"/>
<path d="M123.981 229.362H144.445V225.734H123.981V229.362Z" fill="#233862"/>
<path d="M131.955 225.731H138.422V224.257H131.955V225.731Z" fill="#233862"/>
<path d="M123.699 222.962C123.699 222.962 125.279 225.001 125.796 225.244C126.314 225.488 126.649 225.427 126.649 225.427L125.583 223.51L123.696 222.962H123.699Z" fill="#FFB27D"/>
<path d="M123.334 220.865L127.93 223.095C127.93 223.095 127.733 223.416 127.169 223.388C126.604 223.363 125.177 222.84 125.177 222.84L123.337 220.862L123.334 220.865Z" fill="#FFB27D"/>
<path d="M114.577 221.872C114.577 221.872 122.119 220.192 123.337 220.862C124.554 221.531 127.528 223.969 127.899 224.816C128.273 225.665 125.19 224.171 124.189 223.903C123.539 223.728 121.831 224.323 120.985 224.605C117.427 225.792 115.244 225.181 115.244 225.181L114.577 221.872Z" fill="#FFB27D"/>
<path d="M80.6993 211.396C80.6993 211.396 82.3705 236.55 102.793 237.587L103.75 219.915L80.7021 211.396H80.6993Z" fill="#95B3EF"/>
<path d="M196.451 228.875H89.6418V231.89H196.451V228.875Z" fill="#1C468A"/>
<path d="M195.986 319.262C195.765 318.95 195.305 318.297 192.422 274.528C191.003 252.971 189.68 231.298 189.667 231.083L190.795 231.013C192.237 254.637 196.149 316.44 196.957 318.69C196.957 318.69 196.943 318.654 196.913 318.612L195.989 319.262H195.986Z" fill="#1C468A"/>
<path d="M88.7232 318.786L87.7991 318.136C87.7686 318.181 87.7576 318.214 87.7548 318.214C88.5627 315.973 92.6189 254.507 94.1131 231.011L95.2419 231.083C95.2281 231.298 93.8557 252.849 92.3865 274.29C89.4039 317.821 88.9446 318.471 88.7232 318.786Z" fill="#1C468A"/>
<path d="M103.534 215.829L103.465 217.921C102.569 218.073 100.372 218.136 96.3016 216.529C90.7015 214.321 94.6803 199.767 95.1119 205.08C95.657 211.784 101.725 215.013 103.534 215.829Z" fill="#95B3EF"/>
<path d="M103.512 178.501C103.512 178.501 92.2233 180.2 88.6817 182.873C81.9223 187.975 78.1261 215.065 82.4978 220.325C87.42 226.249 115.244 225.184 115.244 225.184C115.244 225.184 115.13 223.778 114.577 221.874C114.023 219.971 96.3016 213.925 95.7566 212.968C95.2115 212.011 94.7218 198.517 95.3443 196.262C95.9641 194.007 103.512 178.504 103.512 178.504V178.501Z" fill="#AFCDFB"/>
<path d="M105.275 177.829L103.747 209.581L97.721 193.719L99.0436 192.114C99.0436 192.114 98.125 188.628 98.2218 188.274C98.3187 187.92 101.404 178.648 101.404 178.648L105.275 177.832V177.829Z" fill="#95B3EF"/>
<path d="M676.006 181.381C676.006 181.381 675.84 181.022 675.245 180.659C674.799 180.211 673.67 178.615 673.535 178.255C673.278 177.566 672.564 178.166 672.439 178.855C672.398 179.085 672.89 179.749 672.962 179.987C671.523 179.838 672.508 178.864 669.487 179.649C669.487 179.649 668.447 183.379 670.466 184.699C672.483 186.019 674.946 186.295 676.41 185.28L678.38 184.873L678.601 181.442L676.008 181.384L676.006 181.381Z" fill="#FFB27D"/>
<path d="M720.118 146.663C720.118 146.663 736.783 162.06 713.123 179.619C706.734 184.359 677.508 186.152 677.508 186.152C677.508 186.152 676.479 182.568 678.357 180.953C678.357 180.953 698.982 173.69 702.872 172.86C705.027 172.4 703.09 153.331 707.385 148.935C711.679 144.538 720.118 146.663 720.118 146.663Z" fill="#95B3EF"/>
<path d="M738.633 309.351C738.633 309.351 738.102 317.898 736.45 318.02C736.232 318.037 728.064 318.037 728.064 318.037L717.641 317.976C717.641 317.976 717.71 315.463 720.757 314.932C723.803 314.401 728.905 312.259 730.751 308.234C732.693 303.998 738.636 309.351 738.636 309.351H738.633Z" fill="#163560"/>
<path d="M739.234 309.946C739.234 309.946 736.066 311.006 733.592 311.006C730.834 311.006 728.324 310.253 728.324 310.253C728.324 310.253 727.727 304.485 724.445 291.771C722.724 285.108 720.264 276.542 716.77 265.895C707.1 236.475 704.161 219.263 703.893 217.633C703.879 217.547 703.873 217.506 703.873 217.506L703.904 217.492L733.631 204.44C733.631 204.44 729.957 244.989 734.644 260.552C735.299 262.727 735.864 265.262 736.345 268.009C739.306 284.915 739.237 309.946 739.237 309.946H739.234Z" fill="#F99746"/>
<path d="M736.343 268.009L724.445 291.771C722.724 285.108 720.264 276.542 716.77 265.895C707.1 236.475 704.161 219.263 703.893 217.633C703.893 217.583 703.898 217.539 703.904 217.489L733.631 204.438C733.631 204.438 729.957 244.986 734.644 260.55C735.299 262.724 735.864 265.259 736.345 268.006L736.343 268.009Z" fill="#ED7D2B"/>
<path d="M715.417 309.351C715.417 309.351 714.888 317.898 713.234 318.02C713.015 318.037 704.847 318.037 704.847 318.037L694.425 317.976C694.425 317.976 694.494 315.463 697.54 314.932C700.586 314.401 705.686 312.259 707.534 308.234C709.476 303.998 715.42 309.351 715.42 309.351H715.417Z" fill="#163560"/>
<path d="M698.564 205.398C698.564 205.398 698.177 231.675 702.725 263.936C707.271 296.198 705.73 309.894 705.73 309.894C705.73 309.894 708.854 310.906 710.113 311.009C713.325 311.272 716.618 310.256 716.618 310.256C716.618 310.256 723.125 277.984 721.26 261.833C719.396 245.686 730.17 206.422 730.17 206.422L698.564 205.398Z" fill="#F99746"/>
<path d="M720.201 143.296L716.546 149.192L708.284 151.311C708.104 150.65 707.423 147.872 706.806 145.354C706.77 145.205 706.734 145.058 706.698 144.911C706.178 142.77 705.733 140.927 705.733 140.927L711.374 134.491L713.477 132.093C713.488 132.137 714.285 134.364 714.401 134.688C716.479 140.451 720.198 143.293 720.198 143.293L720.201 143.296Z" fill="#FFB27D"/>
<path d="M696.074 207.29C696.193 221.158 697.117 253.605 697.797 254.263C705.022 261.236 736.794 252.351 738.479 244.671C740.161 236.99 732.076 146.173 719.739 142.546C717.179 141.796 706.701 144.914 706.701 144.914C706.701 144.914 701.345 151.834 699.936 158.989C699.413 161.64 697.712 180.557 696.716 193.196C696.453 196.566 696.24 199.488 696.112 201.538C696.06 202.385 696.049 204.449 696.074 207.29Z" fill="#AFCDFB"/>
<path d="M713.917 135.037C713.588 138.404 708.84 143.39 706.806 145.357C706.77 145.208 706.734 145.061 706.698 144.914C706.178 142.773 705.733 140.93 705.733 140.93L711.374 134.494C712.935 133.742 714.053 133.65 713.914 135.037H713.917Z" fill="#FCA56B"/>
<path d="M702.858 141.743C702.858 141.743 715.954 139.989 714.736 131.852C713.519 123.712 714.39 118.004 705.976 118.781C697.562 119.556 696.406 122.904 696.151 125.721C695.897 128.537 699.419 141.992 702.855 141.746L702.858 141.743Z" fill="#FFB27D"/>
<path d="M696.281 124.821C696.281 124.821 700.885 132.809 702.44 131.647C703.995 130.485 705.431 129.489 706.347 132.118C707.263 134.746 711.347 137.339 713.931 136.276C719.362 134.038 718.513 117.467 715.848 115.555C708.162 110.035 685.955 118.529 696.281 124.824V124.821Z" fill="#163560"/>
<path d="M706.748 143.188C706.911 143.119 717.094 138.528 718.173 138.885C719.252 139.242 720.201 142.723 720.201 142.723C720.201 142.723 716.313 143.321 712.968 144.477C708.328 146.082 704.164 148.73 704.164 148.73C704.164 148.73 704.673 144.062 706.748 143.188Z" fill="#95B3EF"/>
<path d="M696.829 206.535C726.977 186.118 724.52 158.04 724.52 158.04C712.758 164.675 701.098 180.383 697.474 192.441C697.211 195.811 696.995 198.732 696.871 200.783C696.818 201.629 696.807 203.693 696.832 206.535H696.829Z" fill="#95B3EF"/>
<path d="M601.738 307.193C591.301 307.193 582.84 298.732 582.84 288.296V168.944H620.635V288.296C620.635 298.732 612.174 307.193 601.738 307.193Z" fill="#CDE3FD"/>
<path d="M601.71 247.794C599.629 230.612 601.035 194.17 601.049 193.805L601.602 193.827C601.588 194.192 600.183 230.59 602.258 247.728L601.71 247.794Z" fill="#A8D29F"/>
<path d="M601.345 194.032C601.544 194.164 598.022 188.954 594.818 189.873C591.614 190.792 587.986 194.228 587.986 194.228C587.986 194.228 592.651 194.463 594.735 194.925C596.818 195.385 600.069 193.182 601.345 194.032Z" fill="#82B378"/>
<path d="M601.342 193.979C601.342 193.979 601.085 191.624 603.677 190.119C603.677 190.119 604.394 191.605 603.907 192.77C603.42 193.932 601.342 193.979 601.342 193.979Z" fill="#82B378"/>
<path d="M601.295 195.916C601.295 195.916 603.597 194.756 605.152 194.834C606.707 194.914 608.583 198.702 608.583 198.702C608.583 198.702 605.398 198.923 604.302 198.591C603.207 198.259 602.238 195.728 601.295 195.916Z" fill="#82B378"/>
<path d="M601.076 202.011C601.076 202.011 596.674 199.269 593.429 200.016C590.183 200.763 587.372 205.279 587.372 205.279C587.372 205.279 591.182 206.123 593.221 205.625C595.26 205.127 597.845 203.541 598.5 202.764C599.153 201.986 601.079 202.011 601.079 202.011H601.076Z" fill="#A8D29F"/>
<path d="M600.357 201.259C600.357 201.259 600.852 199.347 599.519 198.259C598.188 197.172 597.784 196.845 597.784 196.845C597.784 196.845 597.551 198.259 598.013 199.344C598.475 200.429 600.357 201.259 600.357 201.259Z" fill="#82B378"/>
<path d="M600.968 209.1C600.968 209.1 607.343 205.016 611.928 207.099C616.513 209.186 618.447 214.863 618.447 214.863C618.447 214.863 610.722 215.372 608.007 213.604C605.29 211.836 605.249 208.959 604.1 208.898C602.949 208.837 600.971 209.097 600.971 209.097L600.968 209.1Z" fill="#A8D29F"/>
<path d="M600.675 212.531C600.675 212.531 599.737 208.986 596.367 208.809C592.997 208.632 590.078 213.449 590.078 213.449C590.078 213.449 593.268 214.216 595.017 214.066C596.766 213.914 598.307 211.028 599.22 211.551C600.13 212.074 600.675 212.531 600.675 212.531Z" fill="#82B378"/>
<path d="M601.738 301.712C593.982 301.712 587.696 295.426 587.696 287.67V233.44H615.779V287.67C615.779 295.426 609.493 301.712 601.738 301.712Z" fill="#95B3EF"/>
<path d="M622.708 170.718H581.268C579.763 170.718 578.535 169.487 578.535 167.984C578.535 166.479 579.766 165.251 581.268 165.251H622.708C624.213 165.251 625.441 166.482 625.441 167.984C625.441 169.489 624.21 170.718 622.708 170.718Z" fill="#95B3EF"/>
<path d="M645.487 158.992H666.1C668.081 158.992 669.689 160.6 669.689 162.581V170.97C669.689 172.951 668.081 174.558 666.1 174.558H645.487C643.506 174.558 641.898 172.951 641.898 170.97V162.583C641.898 160.602 643.506 158.995 645.487 158.995V158.992Z" fill="#F9DDBF"/>
<path d="M655.271 307.193C644.834 307.193 636.373 298.732 636.373 288.296V168.944H674.168V288.296C674.168 298.732 665.707 307.193 655.271 307.193Z" fill="#CDE3FD"/>
<path d="M641.232 208.226H669.313V287.759C669.313 295.459 663.059 301.712 655.359 301.712H655.182C647.482 301.712 641.229 295.462 641.229 287.759V208.226H641.232Z" fill="#F1A34F"/>
<path d="M676.241 170.718H634.802C633.296 170.718 632.068 169.487 632.068 167.984C632.068 166.479 633.299 165.251 634.802 165.251H676.241C677.746 165.251 678.974 166.482 678.974 167.984C678.974 169.489 677.743 170.718 676.241 170.718Z" fill="#95B3EF"/>
<path d="M575.32 292.155H573.903V317.801H575.32V292.155Z" fill="#2E3552"/>
<path d="M682.104 292.155H680.687V317.801H682.104V292.155Z" fill="#2E3552"/>
<path d="M682.107 292.155H573.903V295.459H682.107V292.155Z" fill="#2E3552"/>
<path d="M670.021 197.714C670.021 197.714 669.777 197.402 669.116 197.186C668.582 196.851 666.615 195.083 666.399 194.762C666.399 194.762 665.973 194.928 666.15 195.639C666.208 195.866 666.618 196.832 666.742 197.047C665.45 197.211 664.529 197.294 662.343 198.37C661.671 198.699 661.17 199.311 661.029 200.044C660.89 200.761 661.065 201.563 662.346 201.842C663.234 202.036 663.84 201.192 666.106 202.017C668.372 202.841 670.107 202.739 671.299 201.419L673.125 200.575L672.558 197.183L670.021 197.714Z" fill="#FFB27D"/>
<path d="M715.129 145.62C715.129 145.62 740.739 150.495 707.595 187.582C702.294 193.514 672.569 202.019 672.569 202.019C672.569 202.019 670.751 198.763 672.215 196.762C672.215 196.762 693.063 182.859 696.392 181.235C698.373 180.266 703.849 157.315 707.03 152.056C710.212 146.798 715.132 145.62 715.132 145.62H715.129Z" fill="#AFCDFB"/>
<path opacity="0.6" d="M655.794 61.7176H552.806V138.902H655.794V61.7176Z" fill="white"/>
<path d="M578.692 132.737H564.2C563.082 132.737 562.033 132.189 561.4 131.268C560.763 130.35 560.619 129.176 561.015 128.13L567.274 111.565V91.8127H575.989V111.571L581.899 128.194C582.276 129.251 582.121 130.383 581.473 131.299C580.826 132.214 579.813 132.74 578.692 132.74V132.737ZM568.394 92.9305V111.77L562.064 128.526C561.795 129.24 561.889 130.006 562.321 130.635C562.755 131.26 563.439 131.62 564.202 131.62H578.695C579.448 131.62 580.128 131.265 580.563 130.651C580.997 130.037 581.102 129.276 580.851 128.568L574.877 111.765V92.9305H568.4H568.394Z" fill="#AFCDFB"/>
<path d="M576.335 129.813H566.563C565.796 129.813 565.077 129.436 564.64 128.806C564.202 128.175 564.103 127.367 564.377 126.65L566.798 120.239L567.055 120.212C568.07 120.104 569.52 120.112 570.646 120.765C571.844 121.46 572.727 121.202 574.063 120.818C574.481 120.696 574.954 120.56 575.477 120.444C575.585 120.419 575.682 120.386 575.76 120.342L576.194 120.098L578.54 126.697C578.798 127.422 578.692 128.2 578.247 128.831C577.804 129.459 577.107 129.821 576.338 129.821L576.335 129.813ZM567.398 121.02L565.16 126.944C564.983 127.411 565.043 127.915 565.328 128.327C565.613 128.736 566.062 128.974 566.563 128.974H576.335C576.828 128.974 577.273 128.742 577.558 128.341C577.843 127.937 577.912 127.439 577.746 126.974L575.71 121.249C575.693 121.255 575.674 121.258 575.657 121.263C575.159 121.374 574.719 121.501 574.293 121.623C572.918 122.021 571.731 122.364 570.223 121.49C569.379 121 568.264 120.956 567.398 121.022V121.02Z" fill="#AFCDFB"/>
<path d="M575.594 93.3649H567.617C567.072 93.3649 566.629 92.9222 566.629 92.3771C566.629 91.8321 567.072 91.3894 567.617 91.3894H575.594C576.139 91.3894 576.581 91.8321 576.581 92.3771C576.581 92.9222 576.139 93.3649 575.594 93.3649Z" fill="#AFCDFB"/>
<path d="M637.419 109.119H613.372V110.497H637.419V109.119Z" fill="#AFCDFB"/>
<path d="M622.641 112.26H613.372V113.638H622.641V112.26Z" fill="#AFCDFB"/>
<path d="M634.807 112.26H623.942V113.638H634.807V112.26Z" fill="#AFCDFB"/>
<path d="M631.34 115.4H613.372V116.778H631.34V115.4Z" fill="#AFCDFB"/>
<path d="M609.908 96.8622C605.761 96.8622 602.385 93.4866 602.385 89.3391C602.385 85.1916 605.761 81.816 609.908 81.816C614.056 81.816 617.431 85.1916 617.431 89.3391C617.431 93.4866 614.056 96.8622 609.908 96.8622ZM609.908 82.9726C606.397 82.9726 603.542 85.828 603.542 89.3391C603.542 92.8503 606.397 95.7057 609.908 95.7057C613.419 95.7057 616.275 92.8503 616.275 89.3391C616.275 85.828 613.419 82.9726 609.908 82.9726Z" fill="#AFCDFB"/>
<path d="M584.912 79.9263C582.248 79.9263 580.081 77.757 580.081 75.0926C580.081 72.4281 582.251 70.2589 584.912 70.2589C587.574 70.2589 589.746 72.4281 589.746 75.0926C589.746 77.757 587.58 79.9263 584.912 79.9263ZM584.912 71.0336C582.674 71.0336 580.851 72.8542 580.851 75.0953C580.851 77.3365 582.671 79.1571 584.912 79.1571C587.154 79.1571 588.974 77.3365 588.974 75.0953C588.974 72.8542 587.154 71.0336 584.912 71.0336Z" fill="#AFCDFB"/>
<path d="M604.04 78.1223C601.873 78.1223 600.108 76.3598 600.108 74.1906C600.108 72.0213 601.87 70.2589 604.04 70.2589C606.209 70.2589 607.971 72.0213 607.971 74.1906C607.971 76.3598 606.209 78.1223 604.04 78.1223ZM604.04 71.0308C602.297 71.0308 600.88 72.4474 600.88 74.1906C600.88 75.9337 602.297 77.3503 604.04 77.3503C605.783 77.3503 607.199 75.9337 607.199 74.1906C607.199 72.4474 605.783 71.0308 604.04 71.0308Z" fill="#AFCDFB"/>
<path d="M640.648 101.439C637.043 101.439 634.11 98.5057 634.11 94.9005C634.11 91.2953 637.043 88.3624 640.648 88.3624C644.253 88.3624 647.186 91.2953 647.186 94.9005C647.186 98.5057 644.253 101.439 640.648 101.439ZM640.648 89.1316C637.469 89.1316 634.879 91.7186 634.879 94.9005C634.879 98.0824 637.466 100.669 640.648 100.669C643.83 100.669 646.417 98.0824 646.417 94.9005C646.417 91.7186 643.83 89.1316 640.648 89.1316Z" fill="#AFCDFB"/>
<path d="M595.698 119.293C592.839 119.293 590.515 116.969 590.515 114.111C590.515 111.253 592.839 108.928 595.698 108.928C598.556 108.928 600.88 111.253 600.88 114.111C600.88 116.969 598.556 119.293 595.698 119.293ZM595.698 109.698C593.266 109.698 591.287 111.676 591.287 114.108C591.287 116.54 593.266 118.518 595.698 118.518C598.13 118.518 600.108 116.54 600.108 114.108C600.108 111.676 598.13 109.698 595.698 109.698Z" fill="#AFCDFB"/>
<path d="M589.005 76.9971L588.688 77.5265L603.61 86.4569L603.927 85.9274L589.005 76.9971Z" fill="#AFCDFB"/>
<path d="M606.023 95.1211L597.842 109.82L598.381 110.12L606.562 95.4212L606.023 95.1211Z" fill="#AFCDFB"/>
<path d="M616.297 91.747L616.202 92.3567L634.403 95.1872L634.497 94.5775L616.297 91.747Z" fill="#AFCDFB"/>
<path d="M605.623 77.3495L605.2 77.5212L607.365 82.8564L607.788 82.6847L605.623 77.3495Z" fill="#AFCDFB"/>
<path d="M617.802 130.278H589.793V131.202H617.802V130.278Z" fill="#AFCDFB"/>
<path d="M617.802 127.715H589.793V128.64H617.802V127.715Z" fill="#AFCDFB"/>
<path d="M617.802 125.153H589.793V126.077H617.802V125.153Z" fill="#AFCDFB"/>
<path d="M650.896 130.278H622.887V131.202H650.896V130.278Z" fill="#AFCDFB"/>
<path d="M650.896 127.715H622.887V128.64H650.896V127.715Z" fill="#AFCDFB"/>
<path d="M650.896 125.153H622.887V126.077H650.896V125.153Z" fill="#AFCDFB"/>
<path d="M636.785 76.3183H631.639L629.066 71.8609L631.639 67.4035H636.785L639.359 71.8609L636.785 76.3183ZM631.811 76.0195H636.614L639.016 71.8609L636.614 67.7023H631.811L629.409 71.8609L631.811 76.0195Z" fill="#AFCDFB"/>
<path d="M628.753 80.9804H623.607L621.034 76.523L623.607 72.0656H628.753L631.326 76.523L628.753 80.9804ZM623.778 80.6816H628.582L630.983 76.523L628.582 72.3644H623.778L621.377 76.523L623.778 80.6816Z" fill="#AFCDFB"/>
<path d="M644.616 80.9804H639.469L636.896 76.523L639.469 72.0656H644.616L647.189 76.523L644.616 80.9804ZM639.641 80.6816H644.444L646.846 76.523L644.444 72.3644H639.641L637.239 76.523L639.641 80.6816Z" fill="#AFCDFB"/>
<path d="M572.403 68.6513H559.133V69.5367H572.403V68.6513Z" fill="#AFCDFB"/>
<path d="M572.403 71.1802H559.133V72.0656H572.403V71.1802Z" fill="#AFCDFB"/>
<path d="M572.403 73.7506H559.133V74.636H572.403V73.7506Z" fill="#AFCDFB"/>
<path d="M572.403 76.0803H559.133V76.9657H572.403V76.0803Z" fill="#AFCDFB"/>
</g>
<defs>
<clipPath id="clip0_111_159">
<rect width="839.722" height="321" fill="white" transform="translate(0.623657)"/>
</clipPath>
</defs>
</svg>
