<svg width="22" height="22" viewBox="0 0 22 22" fill="none" xmlns="http://www.w3.org/2000/svg">
<g clip-path="url(#clip0_826_282)">
<path fill-rule="evenodd" clip-rule="evenodd" d="M10.2037 0.00711214C8.54039 0.168979 7.28618 0.527902 5.92587 1.23116C3.84921 2.30482 2.17233 4.01332 1.13553 6.11192C0.737207 6.9182 0.549481 7.41241 0.341292 8.20311C0.0788294 9.1997 0.00241202 9.80558 4.2819e-05 10.9081C-0.00112024 11.4571 0.0215379 12.0529 0.0524235 12.2846C0.287276 14.0471 0.840805 15.566 1.76656 16.9881L2.07512 17.462L1.38969 19.4827C1.01268 20.5939 0.710199 21.5091 0.717478 21.5165C0.724802 21.5238 1.6677 21.2304 2.81284 20.8647C3.95802 20.4988 4.91026 20.1995 4.929 20.1995C4.94774 20.1995 5.12452 20.2998 5.32185 20.4222C5.51919 20.5448 5.93264 20.7653 6.24064 20.9126C9.02568 22.2436 12.2094 22.3574 15.0611 21.2282C18.2922 19.9486 20.774 17.1494 21.6598 13.7852C21.9312 12.7548 22 12.19 22 10.9942C22 9.79835 21.9312 9.23352 21.6598 8.20311C20.6206 4.25657 17.453 1.18888 13.4558 0.258021C12.7843 0.101617 12.0855 0.0223827 11.2375 0.00650992C10.7636 -0.0023943 10.2984 -0.0021362 10.2037 0.00711214ZM7.57648 5.11147C7.64781 5.14841 7.74774 5.25316 7.79861 5.34418C7.92703 5.57405 8.97425 8.09274 9.00476 8.2451C9.04377 8.44 8.8529 8.77135 8.42473 9.2521C7.9779 9.7537 7.88188 9.91475 7.92164 10.0956C7.99388 10.4239 8.99011 11.7432 9.60389 12.3234C10.5564 13.2237 11.996 14.0787 12.6375 14.1249C12.9673 14.1486 13.0875 14.0554 13.5921 13.3848C13.8209 13.0806 14.065 12.7749 14.1345 12.7055C14.3006 12.5396 14.5473 12.5045 14.8239 12.6072C15.1787 12.7391 17.3478 13.7939 17.5001 13.9087L17.6459 14.0185L17.6219 14.4743C17.56 15.6443 17.149 16.2519 16.0621 16.7803C15.0286 17.2826 14.2196 17.2687 12.6359 16.7221C10.5111 15.9887 9.38326 15.2882 7.85505 13.7526C7.09035 12.9843 6.54694 12.3346 5.9254 11.4458C4.90122 9.9813 4.50845 8.85042 4.62536 7.70263C4.71909 6.78235 5.04113 6.10302 5.69154 5.45357C6.00617 5.13934 6.41789 5.01 7.03754 5.03064C7.30044 5.03937 7.49316 5.06828 7.57648 5.11147Z" fill="white"/>
</g>
<defs>
<clipPath id="clip0_826_282">
<rect width="22" height="22" fill="white"/>
</clipPath>
</defs>
</svg>
