<svg width="27" height="19" viewBox="0 0 27 19" fill="none" xmlns="http://www.w3.org/2000/svg">
<path d="M26.4358 2.97286C26.1253 1.80267 25.2104 0.881076 24.0487 0.568318C21.9431 0 13.5 0 13.5 0C13.5 0 5.05691 0 2.95128 0.568318C1.78962 0.881125 0.874714 1.80267 0.564191 2.97286C0 5.09388 0 9.5192 0 9.5192C0 9.5192 0 13.9445 0.564191 16.0655C0.874714 17.2357 1.78962 18.1189 2.95128 18.4317C5.05691 19 13.5 19 13.5 19C13.5 19 21.9431 19 24.0487 18.4317C25.2104 18.1189 26.1253 17.2357 26.4358 16.0655C27 13.9445 27 9.5192 27 9.5192C27 9.5192 27 5.09388 26.4358 2.97286ZM10.7386 13.5371V5.50134L17.7954 9.5193L10.7386 13.5371Z" fill="white"/>
</svg>
